<svg xmlns="http://www.w3.org/2000/svg" xmlns:xlink="http://www.w3.org/1999/xlink" width="250" zoomAndPan="magnify" viewBox="0 0 187.92 196.08" height="250" preserveAspectRatio="xMidYMid meet" version="1.0"><defs><clipPath id="5dc1c63625"><path d="M 0.398438 25.046875 L 111 25.046875 L 111 161.65625 L 0.398438 161.65625 Z M 0.398438 25.046875 " clip-rule="nonzero"/></clipPath></defs><path fill="#000000" d="M 47.441406 31.257812 C 44.894531 31.257812 42.820312 33.332031 42.820312 35.882812 C 42.820312 38.429688 44.894531 40.503906 47.441406 40.503906 C 49.992188 40.503906 52.0625 38.429688 52.0625 35.882812 C 52.0625 33.332031 49.992188 31.257812 47.441406 31.257812 Z M 47.441406 36.648438 C 47.019531 36.648438 46.675781 36.304688 46.675781 35.882812 C 46.675781 35.460938 47.019531 35.113281 47.441406 35.113281 C 47.867188 35.113281 48.210938 35.460938 48.210938 35.882812 C 48.210938 36.304688 47.867188 36.648438 47.441406 36.648438 Z M 47.441406 36.648438 " fill-opacity="1" fill-rule="nonzero"/><g clip-path="url(#5dc1c63625)"><path fill="#000000" d="M 109.242188 136.332031 C 110.023438 135.875 110.378906 134.9375 110.097656 134.074219 L 108.648438 129.605469 C 108.367188 128.742188 107.527344 128.191406 106.625 128.28125 L 103.53125 128.585938 L 102.390625 127.011719 L 103.636719 124.164062 C 104 123.332031 103.734375 122.363281 103.003906 121.832031 L 99.203125 119.066406 C 98.46875 118.535156 97.46875 118.585938 96.789062 119.1875 L 94.464844 121.25 L 93.539062 120.949219 C 93.632812 120.722656 93.683594 120.472656 93.683594 120.214844 L 93.640625 97.863281 L 94.375 97.863281 L 94.375 94.003906 L 93.632812 94.003906 L 93.542969 48.914062 C 93.542969 48.914062 93.542969 48.910156 93.542969 48.90625 C 93.527344 46.835938 92.714844 44.894531 91.246094 43.4375 C 89.78125 41.980469 87.832031 41.175781 85.765625 41.175781 L 71.070312 41.175781 L 71.070312 36.15625 C 71.070312 35.089844 70.207031 34.226562 69.144531 34.226562 L 58.378906 34.226562 C 57.988281 31.992188 56.925781 29.9375 55.292969 28.300781 C 53.195312 26.203125 50.40625 25.046875 47.441406 25.046875 C 44.476562 25.046875 41.6875 26.203125 39.59375 28.300781 C 37.957031 29.9375 36.894531 31.992188 36.507812 34.226562 L 25.742188 34.226562 C 24.675781 34.226562 23.816406 35.089844 23.816406 36.15625 L 23.816406 41.175781 L 8.183594 41.175781 C 6.101562 41.175781 4.148438 41.988281 2.675781 43.464844 C 1.207031 44.9375 0.402344 46.894531 0.40625 48.976562 L 0.648438 142.929688 C 0.652344 145.003906 1.464844 146.953125 2.933594 148.417969 C 4.402344 149.882812 6.351562 150.691406 8.425781 150.691406 L 73.007812 150.691406 L 73.046875 150.746094 L 71.804688 153.59375 C 71.441406 154.425781 71.703125 155.394531 72.4375 155.925781 L 76.238281 158.691406 C 76.96875 159.222656 77.972656 159.171875 78.648438 158.570312 L 80.972656 156.507812 L 82.820312 157.105469 L 83.488281 160.144531 C 83.683594 161.027344 84.464844 161.660156 85.371094 161.660156 L 90.066406 161.660156 C 90.972656 161.660156 91.753906 161.027344 91.949219 160.144531 L 92.617188 157.105469 L 94.464844 156.507812 L 96.789062 158.570312 C 97.464844 159.171875 98.46875 159.222656 99.199219 158.691406 L 103 155.925781 C 103.734375 155.394531 103.996094 154.425781 103.632812 153.59375 L 102.390625 150.746094 L 103.53125 149.171875 L 106.625 149.476562 C 107.523438 149.5625 108.367188 149.015625 108.644531 148.152344 L 110.097656 143.683594 C 110.375 142.820312 110.019531 141.882812 109.238281 141.425781 L 106.558594 139.851562 L 106.558594 137.90625 Z M 27.667969 38.082031 L 38.269531 38.082031 C 39.332031 38.082031 40.195312 37.21875 40.195312 36.15625 C 40.195312 32.15625 43.445312 28.902344 47.441406 28.902344 C 51.4375 28.902344 54.691406 32.15625 54.691406 36.15625 C 54.691406 37.21875 55.554688 38.082031 56.617188 38.082031 L 67.214844 38.082031 L 67.214844 49.054688 L 27.667969 49.054688 Z M 4.503906 142.917969 L 4.261719 48.96875 C 4.257812 47.917969 4.664062 46.929688 5.40625 46.1875 C 6.148438 45.441406 7.132812 45.03125 8.183594 45.03125 L 23.8125 45.03125 L 23.8125 50.984375 C 23.8125 52.046875 24.675781 52.910156 25.742188 52.910156 L 69.144531 52.910156 C 70.207031 52.910156 71.070312 52.046875 71.070312 50.984375 L 71.070312 45.03125 L 85.765625 45.03125 C 87.914062 45.03125 89.671875 46.777344 89.6875 48.925781 L 89.820312 116.097656 L 85.371094 116.097656 C 84.464844 116.097656 83.683594 116.726562 83.488281 117.609375 L 82.820312 120.648438 L 80.972656 121.25 L 78.648438 119.183594 C 77.972656 118.582031 76.96875 118.535156 76.238281 119.066406 L 72.4375 121.828125 C 71.707031 122.363281 71.441406 123.332031 71.804688 124.160156 L 73.050781 127.011719 L 71.90625 128.582031 L 68.8125 128.28125 C 67.914062 128.191406 67.074219 128.742188 66.792969 129.601562 L 65.339844 134.074219 C 65.0625 134.933594 65.417969 135.875 66.199219 136.332031 L 68.878906 137.90625 L 68.878906 139.847656 L 66.199219 141.421875 C 65.417969 141.882812 65.0625 142.820312 65.339844 143.679688 L 66.363281 146.832031 L 8.425781 146.832031 C 6.269531 146.832031 4.507812 145.078125 4.503906 142.917969 Z M 103.65625 142.617188 L 105.953125 143.964844 L 105.460938 145.488281 L 102.808594 145.226562 C 102.128906 145.160156 101.464844 145.460938 101.0625 146.011719 L 98.625 149.371094 C 98.222656 149.925781 98.144531 150.648438 98.417969 151.277344 L 99.484375 153.71875 L 98.191406 154.660156 L 96.199219 152.890625 C 95.6875 152.4375 94.972656 152.285156 94.324219 152.496094 L 90.378906 153.78125 C 89.726562 153.992188 89.238281 154.53125 89.089844 155.199219 L 88.519531 157.800781 L 86.921875 157.800781 L 86.347656 155.199219 C 86.203125 154.53125 85.710938 153.992188 85.0625 153.78125 L 81.117188 152.496094 C 80.464844 152.285156 79.753906 152.4375 79.242188 152.890625 L 77.25 154.660156 L 75.957031 153.71875 L 77.023438 151.277344 C 77.296875 150.648438 77.21875 149.925781 76.816406 149.371094 L 74.378906 146.011719 C 73.976562 145.460938 73.3125 145.160156 72.628906 145.226562 L 69.980469 145.488281 L 69.484375 143.964844 L 71.78125 142.617188 C 72.371094 142.269531 72.734375 141.636719 72.734375 140.953125 L 72.734375 136.800781 C 72.734375 136.117188 72.371094 135.484375 71.78125 135.140625 L 69.484375 133.792969 L 69.980469 132.269531 L 72.628906 132.527344 C 73.3125 132.597656 73.976562 132.296875 74.378906 131.742188 L 76.816406 128.382812 C 77.21875 127.832031 77.296875 127.105469 77.023438 126.480469 L 75.957031 124.039062 L 77.25 123.097656 L 79.242188 124.867188 C 79.753906 125.320312 80.464844 125.46875 81.117188 125.257812 L 85.0625 123.976562 C 85.710938 123.765625 86.203125 123.222656 86.347656 122.554688 L 86.921875 119.953125 L 88.519531 119.953125 L 89.089844 122.554688 C 89.238281 123.222656 89.726562 123.765625 90.378906 123.976562 L 94.324219 125.257812 C 94.972656 125.46875 95.6875 125.320312 96.199219 124.867188 L 98.191406 123.097656 L 99.484375 124.039062 L 98.417969 126.480469 C 98.144531 127.105469 98.222656 127.832031 98.625 128.382812 L 101.0625 131.742188 C 101.464844 132.296875 102.128906 132.59375 102.808594 132.527344 L 105.460938 132.269531 L 105.953125 133.792969 L 103.65625 135.140625 C 103.066406 135.484375 102.707031 136.117188 102.707031 136.800781 L 102.707031 140.953125 C 102.707031 141.636719 103.066406 142.269531 103.65625 142.617188 Z M 103.65625 142.617188 " fill-opacity="1" fill-rule="nonzero"/></g><path fill="#000000" d="M 87.71875 127.953125 C 84.804688 127.953125 82.0625 129.089844 80 131.152344 C 77.9375 133.214844 76.800781 135.960938 76.800781 138.878906 C 76.800781 141.796875 77.9375 144.539062 80 146.605469 C 82.0625 148.667969 84.804688 149.804688 87.71875 149.804688 C 90.636719 149.804688 93.378906 148.667969 95.441406 146.605469 C 97.503906 144.539062 98.640625 141.796875 98.640625 138.878906 C 98.640625 135.960938 97.503906 133.214844 95.441406 131.152344 C 93.378906 129.089844 90.636719 127.953125 87.71875 127.953125 Z M 87.71875 145.949219 C 83.824219 145.949219 80.652344 142.777344 80.652344 138.878906 C 80.652344 134.980469 83.824219 131.808594 87.71875 131.808594 C 91.617188 131.808594 94.785156 134.980469 94.785156 138.878906 C 94.785156 142.777344 91.617188 145.949219 87.71875 145.949219 Z M 87.71875 145.949219 " fill-opacity="1" fill-rule="nonzero"/><path fill="#000000" d="M 71.574219 72.945312 C 75.378906 72.945312 78.472656 69.847656 78.472656 66.042969 C 78.472656 62.234375 75.378906 59.136719 71.574219 59.136719 C 67.769531 59.136719 64.675781 62.234375 64.675781 66.042969 C 64.675781 69.847656 67.769531 72.945312 71.574219 72.945312 Z M 71.574219 62.996094 C 73.253906 62.996094 74.621094 64.363281 74.621094 66.042969 C 74.621094 67.722656 73.253906 69.085938 71.574219 69.085938 C 69.894531 69.085938 68.53125 67.722656 68.53125 66.042969 C 68.53125 64.363281 69.894531 62.996094 71.574219 62.996094 Z M 71.574219 62.996094 " fill-opacity="1" fill-rule="nonzero"/><path fill="#000000" d="M 23.746094 85.441406 C 24.121094 85.820312 24.613281 86.007812 25.109375 86.007812 C 25.601562 86.007812 26.09375 85.820312 26.46875 85.441406 L 29.058594 82.855469 L 31.644531 85.441406 C 32.019531 85.820312 32.511719 86.007812 33.007812 86.007812 C 33.5 86.007812 33.992188 85.820312 34.367188 85.441406 C 35.121094 84.6875 35.121094 83.46875 34.367188 82.714844 L 31.78125 80.125 L 34.367188 77.539062 C 35.121094 76.785156 35.121094 75.5625 34.367188 74.8125 C 33.617188 74.058594 32.394531 74.058594 31.644531 74.8125 L 29.054688 77.398438 L 26.46875 74.8125 C 25.714844 74.058594 24.496094 74.058594 23.746094 74.8125 C 22.992188 75.5625 22.992188 76.785156 23.746094 77.539062 L 26.332031 80.125 L 23.746094 82.714844 C 22.992188 83.46875 22.992188 84.6875 23.746094 85.441406 Z M 23.746094 85.441406 " fill-opacity="1" fill-rule="nonzero"/><path fill="#000000" d="M 47.261719 116.644531 C 46.507812 115.890625 45.289062 115.890625 44.535156 116.644531 L 41.949219 119.230469 L 39.359375 116.644531 C 38.609375 115.890625 37.386719 115.890625 36.636719 116.644531 C 35.882812 117.398438 35.882812 118.617188 36.636719 119.371094 L 39.222656 121.960938 L 36.636719 124.546875 C 35.882812 125.300781 35.882812 126.523438 36.636719 127.273438 C 37.011719 127.652344 37.503906 127.839844 38 127.839844 C 38.492188 127.839844 38.984375 127.652344 39.359375 127.273438 L 41.949219 124.6875 L 44.535156 127.273438 C 44.910156 127.652344 45.402344 127.839844 45.898438 127.839844 C 46.390625 127.839844 46.882812 127.652344 47.257812 127.273438 C 48.011719 126.523438 48.011719 125.300781 47.257812 124.546875 L 44.671875 121.960938 L 47.257812 119.371094 C 48.011719 118.617188 48.011719 117.394531 47.261719 116.644531 Z M 47.261719 116.644531 " fill-opacity="1" fill-rule="nonzero"/><path fill="#000000" d="M 68.792969 117.609375 C 69.171875 117.988281 69.664062 118.175781 70.15625 118.175781 C 70.648438 118.175781 71.144531 117.988281 71.519531 117.609375 C 72.273438 116.855469 72.273438 115.636719 71.519531 114.882812 L 68.933594 112.292969 L 71.519531 109.707031 C 72.273438 108.953125 72.273438 107.730469 71.519531 106.980469 C 70.765625 106.226562 69.546875 106.226562 68.792969 106.980469 L 66.207031 109.566406 L 63.621094 106.980469 C 62.867188 106.226562 61.648438 106.226562 60.894531 106.980469 C 60.140625 107.730469 60.140625 108.953125 60.894531 109.707031 L 63.480469 112.292969 L 60.894531 114.882812 C 60.140625 115.636719 60.140625 116.855469 60.894531 117.609375 C 61.269531 117.988281 61.765625 118.175781 62.257812 118.175781 C 62.75 118.175781 63.242188 117.988281 63.621094 117.609375 L 66.207031 115.019531 Z M 68.792969 117.609375 " fill-opacity="1" fill-rule="nonzero"/><path fill="#000000" d="M 27.089844 99.949219 L 64.621094 99.949219 C 69.519531 99.949219 73.5 95.960938 73.5 91.0625 L 73.5 83.078125 L 75.46875 85.046875 C 75.84375 85.421875 76.335938 85.609375 76.828125 85.609375 C 77.324219 85.609375 77.816406 85.421875 78.191406 85.046875 C 78.945312 84.292969 78.945312 83.070312 78.191406 82.316406 L 72.9375 77.058594 C 72.183594 76.304688 70.964844 76.304688 70.210938 77.058594 L 64.957031 82.316406 C 64.203125 83.070312 64.203125 84.292969 64.957031 85.046875 C 65.710938 85.796875 66.929688 85.796875 67.679688 85.046875 L 69.648438 83.078125 L 69.648438 91.0625 C 69.648438 93.835938 67.390625 96.089844 64.621094 96.089844 L 27.089844 96.089844 C 22.195312 96.089844 18.210938 100.078125 18.210938 104.976562 L 18.210938 123.15625 C 15.339844 123.992188 13.238281 126.648438 13.238281 129.785156 C 13.238281 133.589844 16.332031 136.6875 20.136719 136.6875 C 23.941406 136.6875 27.035156 133.589844 27.035156 129.785156 C 27.035156 126.648438 24.933594 123.992188 22.0625 123.15625 L 22.0625 104.976562 C 22.0625 102.203125 24.320312 99.949219 27.089844 99.949219 Z M 23.179688 129.785156 C 23.179688 131.464844 21.816406 132.832031 20.136719 132.832031 C 18.457031 132.832031 17.09375 131.464844 17.09375 129.785156 C 17.09375 128.105469 18.457031 126.738281 20.136719 126.738281 C 21.816406 126.738281 23.179688 128.105469 23.179688 129.785156 Z M 23.179688 129.785156 " fill-opacity="1" fill-rule="nonzero"/><path fill="#000000" d="M 155.222656 137.539062 C 154.324219 137.042969 153.191406 137.371094 152.699219 138.269531 L 152.289062 139.015625 L 123.28125 139.015625 L 117.914062 129.253906 L 144.109375 129.253906 C 145.136719 129.253906 145.96875 128.421875 145.96875 127.394531 C 145.96875 126.367188 145.136719 125.53125 144.109375 125.53125 L 118.070312 125.53125 C 119.542969 122.933594 120.828125 120.214844 121.902344 117.414062 C 123.378906 113.570312 124.46875 109.550781 125.140625 105.472656 L 129.195312 80.808594 L 146.289062 80.808594 L 149.472656 101.273438 C 149.628906 102.289062 150.578125 102.984375 151.59375 102.824219 C 152.609375 102.667969 153.304688 101.714844 153.148438 100.699219 L 150.054688 80.808594 L 154.632812 80.808594 C 155.660156 80.808594 156.492188 79.976562 156.492188 78.949219 C 156.492188 77.921875 155.660156 77.089844 154.632812 77.089844 L 149.476562 77.089844 L 148.710938 72.171875 L 159.65625 65.320312 C 160.199219 64.980469 160.53125 64.382812 160.53125 63.742188 L 160.53125 50.988281 C 160.53125 49.960938 159.695312 49.128906 158.667969 49.128906 L 150.550781 49.128906 C 149.523438 49.128906 148.691406 49.960938 148.691406 50.988281 L 148.691406 58.46875 L 144.589844 58.46875 L 144.589844 50.988281 C 144.589844 49.960938 143.757812 49.128906 142.730469 49.128906 L 133.308594 49.128906 C 132.28125 49.128906 131.449219 49.960938 131.449219 50.988281 L 131.449219 58.46875 L 127.148438 58.46875 L 127.148438 50.988281 C 127.148438 49.960938 126.316406 49.128906 125.289062 49.128906 L 117.171875 49.128906 C 116.144531 49.128906 115.308594 49.960938 115.308594 50.988281 L 115.308594 63.742188 C 115.308594 64.367188 115.621094 64.949219 116.140625 65.292969 L 126.8125 72.386719 L 126.039062 77.089844 L 120.9375 77.089844 C 119.910156 77.089844 119.078125 77.921875 119.078125 78.949219 C 119.078125 79.976562 119.910156 80.8125 120.9375 80.8125 L 125.425781 80.8125 L 123.257812 94.007812 L 121.050781 94.007812 L 121.050781 97.863281 L 122.621094 97.863281 L 121.46875 104.871094 C 120.839844 108.699219 119.816406 112.472656 118.429688 116.082031 C 117.046875 119.6875 115.289062 123.15625 113.207031 126.386719 C 113.199219 126.394531 113.195312 126.40625 113.1875 126.414062 C 113.183594 126.425781 113.175781 126.4375 113.167969 126.449219 C 113.164062 126.457031 113.160156 126.464844 113.15625 126.472656 C 113.144531 126.488281 113.136719 126.507812 113.125 126.523438 C 113.117188 126.542969 113.105469 126.5625 113.097656 126.582031 C 113.089844 126.601562 113.082031 126.617188 113.070312 126.636719 C 113.0625 126.65625 113.054688 126.675781 113.046875 126.695312 C 113.039062 126.714844 113.03125 126.734375 113.023438 126.75 C 113.019531 126.769531 113.011719 126.792969 113.003906 126.8125 C 113 126.828125 112.992188 126.847656 112.988281 126.867188 C 112.980469 126.886719 112.976562 126.910156 112.96875 126.929688 C 112.964844 126.949219 112.960938 126.964844 112.957031 126.984375 C 112.949219 127.007812 112.945312 127.027344 112.941406 127.046875 C 112.9375 127.066406 112.933594 127.085938 112.933594 127.105469 C 112.929688 127.125 112.925781 127.148438 112.925781 127.167969 C 112.921875 127.1875 112.917969 127.207031 112.917969 127.226562 C 112.914062 127.246094 112.914062 127.269531 112.914062 127.289062 C 112.910156 127.308594 112.910156 127.328125 112.910156 127.347656 C 112.910156 127.367188 112.910156 127.390625 112.910156 127.410156 C 112.910156 127.429688 112.910156 127.449219 112.910156 127.46875 C 112.914062 127.488281 112.914062 127.511719 112.914062 127.53125 C 112.917969 127.550781 112.917969 127.570312 112.921875 127.589844 C 112.921875 127.609375 112.925781 127.632812 112.929688 127.652344 C 112.929688 127.671875 112.933594 127.691406 112.9375 127.707031 C 112.941406 127.730469 112.945312 127.75 112.949219 127.773438 C 112.953125 127.792969 112.957031 127.808594 112.960938 127.828125 C 112.964844 127.851562 112.972656 127.871094 112.980469 127.890625 C 112.984375 127.910156 112.988281 127.929688 112.992188 127.945312 C 113 127.96875 113.007812 127.988281 113.015625 128.011719 C 113.023438 128.027344 113.027344 128.046875 113.035156 128.0625 C 113.042969 128.085938 113.050781 128.105469 113.0625 128.128906 C 113.066406 128.144531 113.074219 128.160156 113.082031 128.175781 C 113.09375 128.199219 113.105469 128.222656 113.117188 128.246094 C 113.121094 128.257812 113.128906 128.273438 113.136719 128.285156 C 113.136719 128.285156 113.136719 128.289062 113.136719 128.289062 C 113.140625 128.289062 113.140625 128.289062 113.140625 128.292969 L 120.550781 141.773438 C 120.878906 142.371094 121.503906 142.738281 122.183594 142.738281 L 153.386719 142.738281 C 154.066406 142.738281 154.691406 142.367188 155.015625 141.773438 L 155.957031 140.066406 C 156.453125 139.164062 156.125 138.03125 155.222656 137.539062 Z M 129.808594 77.085938 L 130.464844 73.097656 L 145.09375 73.097656 L 145.710938 77.085938 Z M 119.03125 62.742188 L 119.03125 52.851562 L 123.429688 52.851562 L 123.429688 60.328125 C 123.429688 61.355469 124.261719 62.191406 125.289062 62.191406 L 133.308594 62.191406 C 134.335938 62.191406 135.167969 61.355469 135.167969 60.328125 L 135.167969 52.851562 L 140.871094 52.851562 L 140.871094 60.328125 C 140.871094 61.355469 141.703125 62.191406 142.730469 62.191406 L 150.550781 62.191406 C 151.578125 62.191406 152.410156 61.355469 152.410156 60.328125 L 152.410156 52.851562 L 156.808594 52.851562 L 156.808594 62.710938 L 146.167969 69.375 L 129.007812 69.375 Z M 119.03125 62.742188 " fill-opacity="1" fill-rule="nonzero"/><path fill="#000000" d="M 185.960938 119.832031 L 182.558594 117.949219 L 182.089844 115.9375 L 184.304688 112.742188 C 184.753906 112.09375 184.746094 111.234375 184.289062 110.59375 L 181.535156 106.753906 C 181.078125 106.117188 180.265625 105.832031 179.511719 106.050781 L 175.777344 107.128906 L 174.019531 106.035156 L 173.332031 102.210938 C 173.191406 101.433594 172.578125 100.832031 171.800781 100.703125 L 167.140625 99.9375 C 166.367188 99.808594 165.59375 100.183594 165.210938 100.871094 L 163.332031 104.273438 L 161.320312 104.746094 L 158.128906 102.527344 C 157.480469 102.078125 156.621094 102.085938 155.980469 102.542969 L 152.144531 105.296875 C 151.503906 105.757812 151.222656 106.570312 151.441406 107.328125 L 152.515625 111.0625 L 151.425781 112.820312 L 147.601562 113.507812 C 146.828125 113.648438 146.222656 114.261719 146.097656 115.039062 L 145.328125 119.699219 C 145.203125 120.476562 145.578125 121.25 146.265625 121.632812 L 149.664062 123.515625 L 150.136719 125.527344 L 147.917969 128.722656 C 147.46875 129.367188 147.476562 130.226562 147.9375 130.867188 L 150.6875 134.707031 C 151.144531 135.347656 151.957031 135.628906 152.714844 135.410156 L 156.449219 134.335938 L 158.203125 135.425781 L 158.894531 139.253906 C 159.035156 140.027344 159.644531 140.632812 160.421875 140.761719 L 165.082031 141.527344 C 165.183594 141.542969 165.285156 141.550781 165.386719 141.550781 C 166.054688 141.550781 166.679688 141.191406 167.011719 140.589844 L 168.890625 137.1875 L 170.90625 136.71875 L 174.097656 138.9375 C 174.742188 139.386719 175.601562 139.378906 176.242188 138.917969 L 180.078125 136.164062 C 180.71875 135.707031 181 134.894531 180.785156 134.136719 L 179.707031 130.402344 L 180.796875 128.644531 L 184.625 127.953125 C 185.398438 127.816406 186 127.203125 186.128906 126.425781 L 186.894531 121.761719 C 187.023438 120.984375 186.648438 120.210938 185.960938 119.832031 Z M 182.671875 124.523438 L 179.324219 125.128906 C 178.808594 125.222656 178.351562 125.53125 178.074219 125.976562 L 176.113281 129.140625 C 175.832031 129.585938 175.757812 130.128906 175.90625 130.636719 L 176.847656 133.90625 L 175.140625 135.128906 L 172.347656 133.1875 C 171.917969 132.886719 171.378906 132.785156 170.863281 132.90625 L 167.242188 133.75 C 166.730469 133.871094 166.292969 134.203125 166.035156 134.664062 L 164.390625 137.640625 L 162.324219 137.300781 L 161.71875 133.953125 C 161.625 133.433594 161.316406 132.980469 160.871094 132.703125 L 157.710938 130.738281 C 157.261719 130.457031 156.71875 130.382812 156.214844 130.53125 L 152.945312 131.472656 L 151.722656 129.765625 L 153.664062 126.972656 C 153.964844 126.539062 154.066406 126 153.949219 125.488281 L 153.101562 121.863281 C 152.980469 121.347656 152.648438 120.910156 152.191406 120.65625 L 149.214844 119.011719 L 149.554688 116.941406 L 152.902344 116.335938 C 153.417969 116.242188 153.871094 115.933594 154.152344 115.488281 L 156.113281 112.324219 C 156.390625 111.878906 156.46875 111.332031 156.320312 110.828125 L 155.378906 107.558594 L 157.082031 106.335938 L 159.875 108.277344 C 160.308594 108.578125 160.847656 108.679688 161.359375 108.558594 L 164.984375 107.710938 C 165.496094 107.59375 165.933594 107.261719 166.1875 106.800781 L 167.832031 103.824219 L 169.902344 104.164062 L 170.503906 107.511719 C 170.597656 108.03125 170.90625 108.484375 171.355469 108.761719 L 174.515625 110.726562 C 174.960938 111.003906 175.503906 111.082031 176.011719 110.933594 L 179.277344 109.992188 L 180.5 111.699219 L 178.5625 114.492188 C 178.261719 114.925781 178.15625 115.464844 178.277344 115.976562 L 179.125 119.601562 C 179.242188 120.117188 179.574219 120.554688 180.035156 120.808594 L 183.011719 122.453125 Z M 182.671875 124.523438 " fill-opacity="1" fill-rule="nonzero"/><path fill="#000000" d="M 171.488281 112.074219 C 166.71875 109.109375 160.425781 110.578125 157.460938 115.351562 C 156.023438 117.664062 155.574219 120.398438 156.195312 123.050781 C 156.8125 125.699219 158.425781 127.953125 160.738281 129.386719 C 162.371094 130.40625 164.214844 130.925781 166.09375 130.925781 C 166.871094 130.925781 167.652344 130.835938 168.429688 130.65625 C 171.078125 130.039062 173.328125 128.421875 174.765625 126.109375 C 177.726562 121.335938 176.257812 115.039062 171.488281 112.074219 Z M 171.605469 124.144531 C 170.691406 125.613281 169.265625 126.640625 167.582031 127.03125 C 165.902344 127.425781 164.167969 127.140625 162.699219 126.226562 C 159.671875 124.34375 158.738281 120.347656 160.621094 117.316406 C 161.84375 115.347656 163.960938 114.265625 166.125 114.265625 C 167.289062 114.265625 168.464844 114.578125 169.523438 115.238281 C 172.554688 117.121094 173.484375 121.117188 171.605469 124.144531 Z M 171.605469 124.144531 " fill-opacity="1" fill-rule="nonzero"/><path fill="#000000" d="M 114.945312 94.003906 L 118.800781 94.003906 L 118.800781 97.859375 L 114.945312 97.859375 Z M 114.945312 94.003906 " fill-opacity="1" fill-rule="nonzero"/><path fill="#000000" d="M 102.734375 94.003906 L 106.585938 94.003906 L 106.585938 97.859375 L 102.734375 97.859375 Z M 102.734375 94.003906 " fill-opacity="1" fill-rule="nonzero"/><path fill="#000000" d="M 96.625 94.003906 L 100.480469 94.003906 L 100.480469 97.859375 L 96.625 97.859375 Z M 96.625 94.003906 " fill-opacity="1" fill-rule="nonzero"/><path fill="#000000" d="M 108.839844 94.003906 L 112.691406 94.003906 L 112.691406 97.859375 L 108.839844 97.859375 Z M 108.839844 94.003906 " fill-opacity="1" fill-rule="nonzero"/></svg>