<svg xmlns="http://www.w3.org/2000/svg" xmlns:xlink="http://www.w3.org/1999/xlink" width="500" zoomAndPan="magnify" viewBox="0 0 375 374.999991" height="500" preserveAspectRatio="xMidYMid meet" version="1.0"><path fill="#ffffff" d="M 202.183594 368.5 C 202.183594 372.050781 205.101562 374.96875 208.648438 374.96875 L 267.425781 374.96875 C 270.972656 374.96875 273.890625 372.050781 273.890625 368.5 L 273.890625 336.769531 L 202.183594 336.769531 Z M 202.183594 368.5 " fill-opacity="1" fill-rule="nonzero"/><path fill="#ffffff" d="M 371.578125 153.027344 C 369.488281 149.714844 366.175781 147.585938 362.351562 146.914062 C 357.1875 146.007812 352.0625 148.136719 348.949219 152.433594 L 322.890625 188.820312 C 323.484375 189.53125 324.074219 190.277344 324.585938 191.027344 C 331.5625 201.277344 330.777344 214.957031 322.617188 224.339844 L 320.761719 226.429688 C 310.199219 238.570312 298.488281 249.84375 286.074219 259.976562 L 275.902344 268.253906 C 272.550781 270.972656 267.625 270.460938 264.902344 267.109375 C 262.183594 263.761719 262.695312 258.832031 266.046875 256.113281 L 276.257812 247.832031 C 288.003906 238.292969 299.003906 227.648438 309.015625 216.179688 L 310.867188 214.089844 C 314.335938 210.109375 314.691406 204.234375 311.695312 199.859375 C 309.921875 197.257812 307.242188 195.523438 304.128906 194.96875 C 301.011719 194.417969 297.898438 195.128906 295.335938 196.902344 L 238.847656 236.480469 C 232.65625 240.816406 228.042969 247.164062 225.796875 254.378906 L 205.101562 321.472656 L 278.582031 321.472656 L 328.054688 291.15625 C 336.648438 285.875 342.839844 277.636719 345.441406 267.898438 L 373.273438 163.984375 C 374.296875 160.199219 373.667969 156.296875 371.578125 153.027344 Z M 371.578125 153.027344 " fill-opacity="1" fill-rule="nonzero"/><path fill="#ffffff" d="M 149.242188 254.378906 C 146.996094 247.164062 142.382812 240.816406 136.195312 236.480469 L 79.742188 196.902344 C 77.179688 195.128906 74.066406 194.417969 70.910156 194.96875 C 67.835938 195.523438 65.15625 197.296875 63.382812 199.859375 C 60.386719 204.234375 60.742188 210.109375 64.210938 214.089844 L 66.023438 216.179688 C 75.957031 227.609375 86.996094 238.253906 98.78125 247.832031 L 108.953125 256.113281 C 110.570312 257.414062 111.59375 259.304688 111.792969 261.355469 C 111.988281 263.445312 111.398438 265.457031 110.097656 267.070312 C 108.757812 268.6875 106.902344 269.710938 104.8125 269.910156 C 102.765625 270.105469 100.714844 269.515625 99.097656 268.175781 L 88.925781 259.898438 C 76.46875 249.765625 64.800781 238.453125 54.238281 226.347656 L 52.421875 224.261719 C 44.261719 214.917969 43.476562 201.199219 50.453125 190.949219 C 51.003906 190.160156 51.554688 189.410156 52.148438 188.742188 L 26.089844 152.355469 C 23.09375 148.175781 17.734375 145.96875 12.6875 146.835938 C 8.863281 147.46875 5.550781 149.636719 3.421875 152.949219 C 1.292969 156.257812 0.703125 160.121094 1.726562 163.90625 L 29.558594 267.820312 C 32.160156 277.558594 38.351562 285.835938 46.945312 291.078125 L 96.457031 321.472656 L 169.976562 321.472656 Z M 149.242188 254.378906 " fill-opacity="1" fill-rule="nonzero"/><path fill="#ffffff" d="M 101.1875 368.5 C 101.1875 372.050781 104.105469 374.96875 107.652344 374.96875 L 166.429688 374.96875 C 170.015625 374.96875 172.894531 372.050781 172.894531 368.5 L 172.894531 336.769531 L 101.1875 336.769531 Z M 101.1875 368.5 " fill-opacity="1" fill-rule="nonzero"/><path fill="#ffffff" d="M 167.179688 147.152344 L 160.160156 149.4375 C 158.152344 150.03125 156.023438 150.386719 153.894531 150.386719 C 144.078125 150.386719 135.800781 143.722656 133.671875 134.144531 L 132.054688 127.046875 L 104.222656 185.824219 C 102.371094 189.886719 105.839844 194.457031 110.214844 193.511719 L 128.46875 190.121094 C 130.753906 189.6875 133.117188 190.792969 134.378906 192.921875 L 143.25 209.082031 C 145.457031 213.066406 151.09375 212.867188 153.144531 208.726562 L 177.585938 156.890625 C 175.535156 155.785156 173.761719 154.445312 172.183594 152.671875 Z M 167.179688 147.152344 " fill-opacity="1" fill-rule="nonzero"/><path fill="#ffffff" d="M 231.710938 209.042969 L 240.582031 192.882812 C 241.84375 190.753906 244.207031 189.6875 246.492188 190.082031 L 264.746094 193.472656 C 269.160156 194.417969 272.589844 189.84375 270.738281 185.785156 L 242.90625 127.007812 L 241.289062 134.105469 C 239.160156 143.484375 230.726562 150.34375 221.066406 150.34375 C 218.9375 150.34375 216.847656 149.992188 214.800781 149.398438 L 207.703125 147.113281 L 202.734375 152.59375 C 201.199219 154.367188 199.347656 155.707031 197.335938 156.8125 L 221.777344 208.648438 C 223.746094 212.867188 229.503906 213.023438 231.710938 209.042969 Z M 231.710938 209.042969 " fill-opacity="1" fill-rule="nonzero"/><path fill="#ffffff" d="M 204.90625 128.507812 L 219.964844 133.277344 C 222.09375 133.945312 224.339844 132.644531 224.8125 130.476562 L 228.242188 115.0625 C 228.558594 113.605469 229.699219 112.5 231.121094 112.1875 L 246.53125 108.796875 C 248.703125 108.324219 250.003906 106.074219 249.332031 103.945312 L 244.5625 88.886719 C 244.128906 87.46875 244.523438 85.929688 245.625 84.945312 L 257.296875 74.261719 C 258.949219 72.765625 258.949219 70.164062 257.296875 68.664062 L 245.625 58.019531 C 244.523438 57.035156 244.128906 55.5 244.5625 54.078125 L 249.332031 39.019531 C 250.003906 36.890625 248.703125 34.644531 246.53125 34.171875 L 231.121094 30.742188 C 229.699219 30.425781 228.558594 29.285156 228.242188 27.863281 L 224.851562 12.449219 C 224.378906 10.28125 222.132812 8.980469 220.003906 9.652344 L 204.945312 14.421875 C 203.523438 14.855469 201.988281 14.460938 201 13.355469 L 190.320312 1.6875 C 188.820312 0.03125 186.21875 0.03125 184.722656 1.6875 L 174.039062 13.355469 C 173.050781 14.460938 171.515625 14.855469 170.09375 14.421875 L 155.035156 9.652344 C 152.90625 8.980469 150.660156 10.28125 150.1875 12.449219 L 146.796875 27.863281 C 146.480469 29.324219 145.339844 30.425781 143.921875 30.742188 L 128.507812 34.171875 C 126.339844 34.644531 125.039062 36.890625 125.707031 39.019531 L 130.476562 54.078125 C 130.910156 55.5 130.515625 57.035156 129.414062 58.019531 L 117.746094 68.664062 C 116.089844 70.164062 116.089844 72.765625 117.746094 74.261719 L 129.414062 84.945312 C 130.515625 85.929688 130.910156 87.46875 130.476562 88.886719 L 125.707031 103.945312 C 125.039062 106.074219 126.339844 108.324219 128.507812 108.796875 L 143.921875 112.1875 C 145.378906 112.5 146.480469 113.644531 146.796875 115.0625 L 150.1875 130.476562 C 150.660156 132.644531 152.90625 133.945312 155.035156 133.277344 L 170.09375 128.507812 C 171.515625 128.074219 173.050781 128.46875 174.039062 129.570312 L 184.722656 141.238281 C 186.21875 142.894531 188.820312 142.894531 190.320312 141.238281 L 201 129.570312 C 201.988281 128.507812 203.523438 128.074219 204.90625 128.507812 Z M 204.90625 128.507812 " fill-opacity="1" fill-rule="nonzero"/></svg>