<svg width="188" height="42" viewBox="0 0 188 42" fill="none" xmlns="http://www.w3.org/2000/svg">
<g id="Group 11">
<path id="Vector" d="M22.3241 5.27776H19.9073V0H22.3241V5.27776ZM19.5597 5.30919L18.6389 0.111045L16.26 0.527986L17.1808 5.72613L19.5597 5.30919ZM16.8437 5.81622L15.0274 0.856929L12.756 1.67824L14.5723 6.63753L16.8437 5.81622ZM14.2562 6.7842L11.6014 2.21251L9.50907 3.41305L12.1639 7.98474L14.2562 6.7842ZM11.8795 8.18587L8.46819 4.14217L6.61821 5.68632L10.0295 9.73002L11.8795 8.18587ZM9.78088 9.97516L5.71429 6.58306L4.1614 8.42263L8.22799 11.8147L9.78088 9.97516ZM8.02782 12.0997L3.43026 9.46184L2.22293 11.5424L6.82049 14.1802L8.02782 12.0997ZM6.673 14.4966L1.68563 12.6905L0.859672 14.9491L5.84704 16.7552L6.673 14.4966ZM5.75643 17.0883L0.528867 16.1727L0.109566 18.5382L5.33713 19.4538L5.75643 17.0883ZM5.30763 19.8016H0V22.2047H5.30763V19.8016ZM5.33924 22.5483L0.111673 23.466L0.530974 25.8315L5.75854 24.9159L5.33924 22.5504V22.5483ZM5.84914 25.249L0.861779 27.0551L1.68774 29.3137L6.6751 27.5076L5.84914 25.249ZM6.8226 27.8219L2.22503 30.4597L3.43237 32.5403L8.02993 29.9003L6.8226 27.8198V27.8219ZM8.23221 30.1874L4.16562 33.5795L5.71851 35.419L9.78509 32.0269L8.23221 30.1874ZM10.0316 32.2721L6.62032 36.3158L8.4703 37.8599L11.8816 33.8162L10.0295 32.2721H10.0316ZM12.1682 34.0153L9.51329 38.5869L11.6056 39.7875L14.2604 35.2158L12.1682 34.0153ZM14.5786 35.3625L12.7623 40.3218L15.0337 41.1431L16.85 36.1838L14.5786 35.3625ZM16.2642 41.472L18.6431 41.889L19.5639 36.6908L17.185 36.2739L16.2642 41.472ZM42.2356 19.7953H29.6713C29.7303 20.2017 29.7619 20.6187 29.7619 21.0419C29.7619 25.7896 25.8934 29.6363 21.121 29.6363C20.7101 29.6363 20.3077 29.607 19.9115 29.5504V42H22.3283V34.7737L23.5967 41.889L25.9777 41.472L24.6945 34.2772L27.2082 41.1431L29.4796 40.3218L26.9785 33.4915L30.6343 39.7854L32.7265 38.5849L29.0708 32.2888L33.7695 37.8578L35.6195 36.3137L30.8997 30.7216L36.5192 35.419L38.0721 33.5795L32.499 28.9219L38.8011 32.5403L40.0085 30.4597L33.6747 26.8246L40.5458 29.3116L41.3717 27.053L34.507 24.5681L41.7025 25.8294L42.1218 23.4618L34.9242 22.2005H42.2335V19.7974L42.2356 19.7953ZM36.3865 16.7489L41.3738 14.9428L40.5479 12.6842L35.5605 14.4903L36.3865 16.7489ZM35.413 14.176L40.0106 11.5382L38.8032 9.45765L34.2057 12.0955L35.413 14.176ZM34.0034 11.8126L38.07 8.42053L36.5171 6.58096L32.4505 9.97306L34.0034 11.8126ZM32.204 9.72583L35.6153 5.68213L33.7653 4.13798L30.354 8.18168L32.2061 9.72583H32.204ZM30.0675 7.98264L32.7223 3.41095L30.63 2.21042L27.9752 6.7821L30.0675 7.98264ZM27.6591 6.63544L29.4754 1.67614L27.204 0.854834L25.3877 5.81413L27.6591 6.63544ZM25.9714 0.527986L23.5925 0.111045L22.6717 5.30919L25.0506 5.72613L25.9714 0.527986Z" fill="#4EFF5D"/>
<g id="Group">
<path id="Vector_2" d="M179.292 12.8413V9.642H178V8.65517H181.66V9.642H180.368V12.8413H179.292ZM183.059 9.84314V12.8392H182.031V8.65308H183.657L184.65 11.5067L185.655 8.65308H187.197V12.8392H186.169V9.87876L185.092 12.8392H184.148L183.059 9.84314Z" fill="white"/>
<path id="Vector_3" d="M52.6641 20.9828C52.6641 13.4737 58.1065 7.99268 65.4559 7.99268C70.9321 7.99268 74.9818 11.0035 76.3072 14.7245L71.6464 16.958C70.7614 14.5234 68.5174 12.7299 65.4559 12.7299C60.9658 12.7299 57.938 16.078 57.938 20.9828C57.938 25.8876 61.1028 29.2713 65.5929 29.2713C69.0632 29.2713 72.2258 27.2076 72.2258 23.6898V23.6227H65.4559V19.2249H77.4976V21.8963C77.4976 30.1513 71.4083 34.0064 65.5908 34.0064C58.3109 34.0064 52.6641 28.4584 52.6641 20.9828Z" fill="white"/>
<path id="Vector_4" d="M78.7012 28.6621C78.7012 25.5508 80.844 23.4535 85.3004 22.7432L90.4374 21.9303V21.4232C90.4374 20.0362 89.2469 18.953 87.3421 18.953C85.4374 18.953 84.0425 20.0362 83.4294 21.66L79.348 19.7324C80.4374 16.6546 83.6338 14.7271 87.5802 14.7271C92.2747 14.7271 95.5406 17.4675 95.5406 21.4253V33.6025H90.7787V31.8782C89.3164 33.3323 87.5465 34.009 85.1993 34.009C81.1854 34.009 78.7012 32.0123 78.7012 28.6642V28.6621ZM86.2191 30.2859C88.737 30.2859 90.4374 28.4924 90.4374 26.2254V25.6513L86.2191 26.3951C84.7568 26.6654 83.973 27.2751 83.973 28.4924C83.973 29.6426 84.9254 30.2859 86.2191 30.2859Z" fill="white"/>
<path id="Vector_5" d="M97.4863 7.99268H102.59V33.6H97.4863V7.99268Z" fill="white"/>
<path id="Vector_6" d="M104.223 28.6621C104.223 25.5508 106.366 23.4535 110.822 22.7432L115.959 21.9303V21.4232C115.959 20.0362 114.768 18.953 112.864 18.953C110.959 18.953 109.564 20.0362 108.951 21.66L104.87 19.7324C105.959 16.6546 109.155 14.7271 113.102 14.7271C117.796 14.7271 121.062 17.4675 121.062 21.4253V33.6025H116.3V31.8782C114.838 33.3323 113.068 34.009 110.721 34.009C106.707 34.009 104.223 32.0123 104.223 28.6642V28.6621ZM111.743 30.2859C114.261 30.2859 115.961 28.4924 115.961 26.2254V25.6513L111.743 26.3951C110.28 26.6654 109.497 27.2751 109.497 28.4924C109.497 29.6426 110.449 30.2859 111.743 30.2859Z" fill="white"/>
<path id="Vector_7" d="M122.693 24.331C122.693 18.85 126.945 14.7246 132.559 14.7246C136.709 14.7246 140.11 16.9916 141.233 20.4067L136.811 22.3008C136.164 20.4403 134.564 19.29 132.559 19.29C129.872 19.29 127.965 21.3873 127.965 24.3645C127.965 27.3418 129.87 29.4391 132.559 29.4391C134.6 29.4391 136.164 28.2888 136.811 26.4283L141.233 28.3559C140.178 31.6369 136.777 34.0045 132.559 34.0045C126.979 34.0045 122.693 29.8434 122.693 24.3289V24.331Z" fill="white"/>
<path id="Vector_8" d="M145.418 26.9357V19.5272H142.289V15.1294H142.46C144.364 15.1294 145.42 14.1823 145.42 12.2883V10.9348H150.523V15.1294H154.879V19.5272H150.523V26.5963C150.523 28.4903 151.543 29.4038 153.688 29.4038C153.994 29.4038 154.402 29.3703 154.879 29.3033V33.5984C154.198 33.699 153.279 33.8016 152.498 33.8016C148.008 33.8016 145.422 31.2644 145.422 26.9336L145.418 26.9357Z" fill="white"/>
<path id="Vector_9" d="M156.625 15.1311H161.728V33.6001H156.625V15.1311Z" fill="white"/>
<path id="Vector_10" d="M163.361 24.331C163.361 18.85 167.613 14.7246 173.226 14.7246C177.377 14.7246 180.778 16.9916 181.901 20.4067L177.478 22.3008C176.832 20.4403 175.232 19.29 173.226 19.29C170.54 19.29 168.633 21.3873 168.633 24.3645C168.633 27.3418 170.538 29.4391 173.226 29.4391C175.268 29.4391 176.832 28.2888 177.478 26.4283L181.901 28.3559C180.846 31.6369 177.445 34.0045 173.226 34.0045C167.647 34.0045 163.361 29.8434 163.361 24.3289V24.331Z" fill="white"/>
<path id="Vector_11" d="M159.161 13.7566C157.492 13.7566 156.316 12.6817 156.316 11.236C156.316 9.79037 157.492 8.65479 159.161 8.65479C160.83 8.65479 162.035 9.73171 162.035 11.236C162.035 12.7404 160.859 13.7566 159.161 13.7566Z" fill="white"/>
</g>
</g>
</svg>
