<svg xmlns="http://www.w3.org/2000/svg" xmlns:xlink="http://www.w3.org/1999/xlink" width="500" zoomAndPan="magnify" viewBox="0 0 375 374.999991" height="500" preserveAspectRatio="xMidYMid meet" version="1.0"><defs><clipPath id="f781fc8eed"><path d="M 0 50.660156 L 375 50.660156 L 375 313 L 0 313 Z M 0 50.660156 " clip-rule="nonzero"/></clipPath><clipPath id="6e15b0ec3e"><path d="M 37.046875 244 L 92.617188 244 L 92.617188 324.328125 L 37.046875 324.328125 Z M 37.046875 244 " clip-rule="nonzero"/></clipPath><clipPath id="5a23deee9f"><path d="M 119.472656 195.140625 L 175 195.140625 L 175 324.328125 L 119.472656 324.328125 Z M 119.472656 195.140625 " clip-rule="nonzero"/></clipPath><clipPath id="92e5eb094d"><path d="M 201.902344 186.804688 L 257 186.804688 L 257 324.328125 L 201.902344 324.328125 Z M 201.902344 186.804688 " clip-rule="nonzero"/></clipPath><clipPath id="9117b7ef31"><path d="M 284 114.566406 L 339.898438 114.566406 L 339.898438 324.328125 L 284 324.328125 Z M 284 114.566406 " clip-rule="nonzero"/></clipPath></defs><g clip-path="url(#f781fc8eed)"><path fill="#ffffff" d="M 375.050781 50.65625 L 306.746094 63.808594 L 331.597656 74.738281 L 221.5 181.011719 L 142.269531 167.011719 L 139.71875 166.558594 L 138.082031 168.277344 L 0 312.917969 L 142.765625 176.625 L 222.359375 194.53125 L 225.484375 195.238281 L 228.121094 192.917969 L 344.988281 90.132812 L 352.285156 116.386719 L 375.050781 50.65625 " fill-opacity="1" fill-rule="nonzero"/></g><g clip-path="url(#6e15b0ec3e)"><path fill="#ffffff" d="M 37.355469 296.554688 L 37.355469 324.328125 L 92.226562 324.328125 L 92.226562 244.175781 L 37.355469 296.554688 " fill-opacity="1" fill-rule="nonzero"/></g><g clip-path="url(#5a23deee9f)"><path fill="#ffffff" d="M 142.765625 195.929688 L 119.65625 217.992188 L 119.65625 324.328125 L 174.523438 324.328125 L 174.523438 203.074219 L 142.765625 195.929688 " fill-opacity="1" fill-rule="nonzero"/></g><g clip-path="url(#92e5eb094d)"><path fill="#ffffff" d="M 228.121094 212.222656 L 225.484375 214.539062 L 222.359375 213.835938 L 201.953125 209.246094 L 201.953125 324.328125 L 256.820312 324.328125 L 256.820312 186.984375 L 228.121094 212.222656 " fill-opacity="1" fill-rule="nonzero"/></g><g clip-path="url(#9117b7ef31)"><path fill="#ffffff" d="M 284.25 162.859375 L 284.25 324.328125 L 339.117188 324.328125 L 339.117188 114.605469 L 284.25 162.859375 " fill-opacity="1" fill-rule="nonzero"/></g></svg>