<svg xmlns="http://www.w3.org/2000/svg" xmlns:xlink="http://www.w3.org/1999/xlink" width="500" zoomAndPan="magnify" viewBox="0 0 375 374.999991" height="500" preserveAspectRatio="xMidYMid meet" version="1.0"><defs><clipPath id="1a42ee1357"><path d="M 164 327 L 211 327 L 211 374.71875 L 164 374.71875 Z M 164 327 " clip-rule="nonzero"/></clipPath></defs><path fill="#ffffff" d="M 70.421875 231.015625 C 70.292969 231.015625 70.167969 231.015625 70.039062 231.003906 C 66.808594 230.796875 64.359375 228.007812 64.566406 224.78125 C 66.355469 197.148438 89.46875 175.5 117.1875 175.5 C 131.277344 175.5 144.523438 180.984375 154.480469 190.941406 C 156.714844 193.175781 158.753906 195.617188 160.542969 198.199219 C 162.386719 200.859375 161.722656 204.507812 159.066406 206.351562 C 156.40625 208.195312 152.753906 207.535156 150.910156 204.875 C 149.519531 202.867188 147.933594 200.96875 146.195312 199.226562 C 138.449219 191.484375 128.148438 187.21875 117.1875 187.21875 C 95.628906 187.21875 77.652344 204.050781 76.261719 225.535156 C 76.0625 228.636719 73.484375 231.015625 70.421875 231.015625 Z M 70.421875 231.015625 " fill-opacity="1" fill-rule="nonzero"/><path fill="#ffffff" d="M 144.140625 257.53125 L 82.667969 257.53125 C 79.433594 257.53125 76.808594 254.90625 76.808594 251.671875 C 76.808594 248.4375 79.433594 245.8125 82.667969 245.8125 L 144.140625 245.8125 C 147.375 245.8125 150 248.4375 150 251.671875 C 150 254.90625 147.375 257.53125 144.140625 257.53125 Z M 144.140625 257.53125 " fill-opacity="1" fill-rule="nonzero"/><path fill="#ffffff" d="M 292.332031 257.53125 L 228.515625 257.53125 C 225.28125 257.53125 222.65625 254.90625 222.65625 251.671875 C 222.65625 248.4375 225.28125 245.8125 228.515625 245.8125 L 292.332031 245.8125 C 295.566406 245.8125 298.191406 248.4375 298.191406 251.671875 C 298.191406 254.90625 295.566406 257.53125 292.332031 257.53125 Z M 292.332031 257.53125 " fill-opacity="1" fill-rule="nonzero"/><path fill="#ffffff" d="M 304.578125 231.015625 C 301.515625 231.015625 298.9375 228.636719 298.738281 225.535156 C 298.101562 215.617188 293.867188 206.277344 286.820312 199.230469 C 279.074219 191.484375 268.773438 187.21875 257.8125 187.21875 C 243.738281 187.21875 230.804688 194.308594 223.214844 206.1875 C 221.472656 208.914062 217.847656 209.710938 215.121094 207.96875 C 212.394531 206.226562 211.597656 202.601562 213.339844 199.875 C 223.09375 184.613281 239.71875 175.5 257.8125 175.5 C 271.902344 175.5 285.148438 180.984375 295.105469 190.941406 C 304.167969 200.003906 309.613281 212.023438 310.433594 224.78125 C 310.640625 228.011719 308.191406 230.796875 304.960938 231.003906 C 304.832031 231.015625 304.707031 231.015625 304.578125 231.015625 Z M 304.578125 231.015625 " fill-opacity="1" fill-rule="nonzero"/><path fill="#ffffff" d="M 117.1875 187.21875 C 101.03125 187.21875 87.890625 174.074219 87.890625 157.921875 C 87.890625 141.765625 101.03125 128.625 117.1875 128.625 C 133.339844 128.625 146.484375 141.765625 146.484375 157.921875 C 146.484375 174.074219 133.339844 187.21875 117.1875 187.21875 Z M 117.1875 140.34375 C 107.496094 140.34375 99.609375 148.230469 99.609375 157.921875 C 99.609375 167.613281 107.496094 175.5 117.1875 175.5 C 126.878906 175.5 134.765625 167.613281 134.765625 157.921875 C 134.765625 148.230469 126.878906 140.34375 117.1875 140.34375 Z M 117.1875 140.34375 " fill-opacity="1" fill-rule="nonzero"/><path fill="#ffffff" d="M 228.515625 257.53125 L 144.140625 257.53125 C 140.90625 257.53125 138.28125 254.90625 138.28125 251.671875 L 138.28125 230.578125 C 138.28125 204.085938 159.835938 182.53125 186.328125 182.53125 C 212.820312 182.53125 234.375 204.085938 234.375 230.578125 L 234.375 251.671875 C 234.375 254.90625 231.75 257.53125 228.515625 257.53125 Z M 150 245.8125 L 222.65625 245.8125 L 222.65625 230.578125 C 222.65625 210.546875 206.359375 194.25 186.328125 194.25 C 166.296875 194.25 150 210.546875 150 230.578125 Z M 150 245.8125 " fill-opacity="1" fill-rule="nonzero"/><path fill="#ffffff" d="M 186.328125 194.25 C 171.464844 194.25 159.375 182.160156 159.375 167.296875 C 159.375 152.433594 171.464844 140.34375 186.328125 140.34375 C 201.191406 140.34375 213.28125 152.433594 213.28125 167.296875 C 213.28125 182.160156 201.191406 194.25 186.328125 194.25 Z M 186.328125 152.0625 C 177.929688 152.0625 171.09375 158.898438 171.09375 167.296875 C 171.09375 175.695312 177.929688 182.53125 186.328125 182.53125 C 194.726562 182.53125 201.5625 175.695312 201.5625 167.296875 C 201.5625 158.898438 194.726562 152.0625 186.328125 152.0625 Z M 186.328125 152.0625 " fill-opacity="1" fill-rule="nonzero"/><path fill="#ffffff" d="M 257.8125 187.21875 C 241.65625 187.21875 228.515625 174.074219 228.515625 157.921875 C 228.515625 141.765625 241.65625 128.625 257.8125 128.625 C 273.964844 128.625 287.109375 141.765625 287.109375 157.921875 C 287.109375 174.074219 273.964844 187.21875 257.8125 187.21875 Z M 257.8125 140.34375 C 248.121094 140.34375 240.234375 148.230469 240.234375 157.921875 C 240.234375 167.613281 248.121094 175.5 257.8125 175.5 C 267.503906 175.5 275.390625 167.613281 275.390625 157.921875 C 275.390625 148.230469 267.503906 140.34375 257.8125 140.34375 Z M 257.8125 140.34375 " fill-opacity="1" fill-rule="nonzero"/><path fill="#ffffff" d="M 187.5 316.125 C 165.097656 316.125 143.027344 310.285156 123.679688 299.242188 C 104.921875 288.53125 89.015625 273.144531 77.679688 254.746094 C 72.316406 246.050781 67.996094 236.699219 64.839844 226.964844 C 60.695312 214.183594 58.59375 200.8125 58.59375 187.21875 C 58.59375 116.140625 116.421875 58.3125 187.5 58.3125 C 258.578125 58.3125 316.40625 116.140625 316.40625 187.21875 C 316.40625 200.8125 314.304688 214.183594 310.160156 226.964844 C 307.003906 236.703125 302.683594 246.050781 297.320312 254.75 C 285.984375 273.144531 270.078125 288.53125 251.320312 299.242188 C 231.972656 310.285156 209.902344 316.125 187.5 316.125 Z M 187.5 70.03125 C 122.882812 70.03125 70.3125 122.601562 70.3125 187.21875 C 70.3125 199.582031 72.222656 211.738281 75.988281 223.351562 C 78.855469 232.199219 82.78125 240.695312 87.65625 248.59375 C 109.183594 283.542969 146.507812 304.40625 187.5 304.40625 C 228.492188 304.40625 265.816406 283.542969 287.34375 248.597656 C 292.21875 240.695312 296.144531 232.203125 299.011719 223.351562 C 302.777344 211.738281 304.6875 199.582031 304.6875 187.21875 C 304.6875 122.601562 252.117188 70.03125 187.5 70.03125 Z M 187.5 70.03125 " fill-opacity="1" fill-rule="nonzero"/><path fill="#ffffff" d="M 23.4375 210.65625 C 10.515625 210.65625 0 200.140625 0 187.21875 C 0 174.296875 10.515625 163.78125 23.4375 163.78125 C 36.359375 163.78125 46.875 174.296875 46.875 187.21875 C 46.875 200.140625 36.359375 210.65625 23.4375 210.65625 Z M 23.4375 175.5 C 16.976562 175.5 11.71875 180.757812 11.71875 187.21875 C 11.71875 193.679688 16.976562 198.9375 23.4375 198.9375 C 29.898438 198.9375 35.15625 193.679688 35.15625 187.21875 C 35.15625 180.757812 29.898438 175.5 23.4375 175.5 Z M 23.4375 175.5 " fill-opacity="1" fill-rule="nonzero"/><path fill="#ffffff" d="M 187.5 46.59375 C 174.578125 46.59375 164.0625 36.078125 164.0625 23.15625 C 164.0625 10.234375 174.578125 -0.28125 187.5 -0.28125 C 200.421875 -0.28125 210.9375 10.234375 210.9375 23.15625 C 210.9375 36.078125 200.421875 46.59375 187.5 46.59375 Z M 187.5 11.4375 C 181.039062 11.4375 175.78125 16.695312 175.78125 23.15625 C 175.78125 29.617188 181.039062 34.875 187.5 34.875 C 193.960938 34.875 199.21875 29.617188 199.21875 23.15625 C 199.21875 16.695312 193.960938 11.4375 187.5 11.4375 Z M 187.5 11.4375 " fill-opacity="1" fill-rule="nonzero"/><path fill="#ffffff" d="M 351.5625 210.65625 C 338.640625 210.65625 328.125 200.140625 328.125 187.21875 C 328.125 174.296875 338.640625 163.78125 351.5625 163.78125 C 364.484375 163.78125 375 174.296875 375 187.21875 C 375 200.140625 364.484375 210.65625 351.5625 210.65625 Z M 351.5625 175.5 C 345.101562 175.5 339.84375 180.757812 339.84375 187.21875 C 339.84375 193.679688 345.101562 198.9375 351.5625 198.9375 C 358.023438 198.9375 363.28125 193.679688 363.28125 187.21875 C 363.28125 180.757812 358.023438 175.5 351.5625 175.5 Z M 351.5625 175.5 " fill-opacity="1" fill-rule="nonzero"/><g clip-path="url(#1a42ee1357)"><path fill="#ffffff" d="M 187.5 374.71875 C 174.578125 374.71875 164.0625 364.203125 164.0625 351.28125 C 164.0625 338.359375 174.578125 327.84375 187.5 327.84375 C 200.421875 327.84375 210.9375 338.359375 210.9375 351.28125 C 210.9375 364.203125 200.421875 374.71875 187.5 374.71875 Z M 187.5 339.5625 C 181.039062 339.5625 175.78125 344.820312 175.78125 351.28125 C 175.78125 357.742188 181.039062 363 187.5 363 C 193.960938 363 199.21875 357.742188 199.21875 351.28125 C 199.21875 344.820312 193.960938 339.5625 187.5 339.5625 Z M 187.5 339.5625 " fill-opacity="1" fill-rule="nonzero"/></g><path fill="#ffffff" d="M 71.492188 94.636719 C 65.488281 94.636719 59.488281 92.351562 54.917969 87.78125 C 45.78125 78.644531 45.78125 63.773438 54.917969 54.636719 C 64.058594 45.5 78.925781 45.5 88.0625 54.636719 C 97.203125 63.773438 97.203125 78.644531 88.0625 87.78125 C 83.492188 92.351562 77.492188 94.636719 71.492188 94.636719 Z M 71.492188 59.496094 C 68.488281 59.496094 65.488281 60.636719 63.203125 62.921875 C 58.636719 67.492188 58.636719 74.925781 63.203125 79.496094 C 67.773438 84.0625 75.207031 84.066406 79.777344 79.496094 C 84.34375 74.925781 84.34375 67.492188 79.777344 62.921875 C 77.492188 60.636719 74.492188 59.496094 71.492188 59.496094 Z M 71.492188 59.496094 " fill-opacity="1" fill-rule="nonzero"/><path fill="#ffffff" d="M 303.507812 94.644531 C 297.25 94.644531 291.363281 92.207031 286.9375 87.78125 C 282.511719 83.355469 280.070312 77.46875 280.070312 71.207031 C 280.070312 64.949219 282.511719 59.0625 286.9375 54.636719 C 291.363281 50.210938 297.25 47.769531 303.507812 47.769531 C 309.769531 47.769531 315.65625 50.210938 320.082031 54.636719 C 324.507812 59.0625 326.945312 64.949219 326.945312 71.207031 C 326.945312 77.46875 324.507812 83.355469 320.082031 87.78125 C 315.65625 92.207031 309.769531 94.644531 303.507812 94.644531 Z M 303.507812 59.488281 C 300.378906 59.488281 297.4375 60.707031 295.222656 62.921875 C 293.011719 65.136719 291.789062 68.078125 291.789062 71.207031 C 291.789062 74.339844 293.011719 77.28125 295.222656 79.496094 C 297.4375 81.707031 300.378906 82.925781 303.511719 82.925781 C 306.640625 82.925781 309.582031 81.707031 311.796875 79.496094 C 314.007812 77.28125 315.230469 74.339844 315.230469 71.210938 C 315.230469 68.078125 314.011719 65.136719 311.796875 62.921875 C 309.582031 60.707031 306.640625 59.488281 303.507812 59.488281 Z M 303.507812 59.488281 " fill-opacity="1" fill-rule="nonzero"/><path fill="#ffffff" d="M 303.507812 326.664062 C 297.25 326.664062 291.363281 324.226562 286.9375 319.800781 C 282.511719 315.375 280.070312 309.488281 280.070312 303.226562 C 280.070312 296.96875 282.511719 291.082031 286.9375 286.65625 C 291.363281 282.230469 297.25 279.789062 303.507812 279.789062 C 309.769531 279.789062 315.65625 282.230469 320.082031 286.65625 C 324.507812 291.082031 326.945312 296.96875 326.945312 303.226562 C 326.945312 309.488281 324.507812 315.375 320.082031 319.800781 C 315.65625 324.226562 309.769531 326.664062 303.507812 326.664062 Z M 303.507812 291.507812 C 300.378906 291.507812 297.4375 292.730469 295.222656 294.941406 C 293.011719 297.15625 291.789062 300.097656 291.789062 303.230469 C 291.789062 306.359375 293.007812 309.300781 295.222656 311.515625 C 297.4375 313.726562 300.378906 314.949219 303.507812 314.949219 C 306.640625 314.949219 309.582031 313.730469 311.792969 311.515625 C 314.007812 309.300781 315.226562 306.359375 315.226562 303.230469 C 315.226562 300.097656 314.007812 297.15625 311.796875 294.941406 C 309.582031 292.730469 306.640625 291.507812 303.507812 291.507812 Z M 291.082031 290.800781 L 291.085938 290.800781 Z M 291.082031 290.800781 " fill-opacity="1" fill-rule="nonzero"/><path fill="#ffffff" d="M 71.492188 326.664062 C 65.230469 326.664062 59.34375 324.226562 54.917969 319.800781 C 50.492188 315.375 48.054688 309.488281 48.054688 303.226562 C 48.054688 296.96875 50.492188 291.082031 54.917969 286.65625 C 59.34375 282.230469 65.230469 279.789062 71.492188 279.789062 C 77.75 279.789062 83.636719 282.230469 88.0625 286.65625 C 92.488281 291.082031 94.925781 296.96875 94.925781 303.226562 C 94.925781 309.488281 92.488281 315.375 88.0625 319.800781 C 83.636719 324.226562 77.75 326.664062 71.492188 326.664062 Z M 71.492188 291.507812 C 68.359375 291.507812 65.417969 292.730469 63.203125 294.941406 C 60.992188 297.15625 59.773438 300.097656 59.773438 303.226562 C 59.773438 306.359375 60.992188 309.300781 63.203125 311.515625 C 65.417969 313.726562 68.359375 314.945312 71.492188 314.945312 C 74.621094 314.945312 77.5625 313.726562 79.777344 311.515625 C 81.988281 309.300781 83.210938 306.359375 83.210938 303.226562 C 83.210938 300.097656 81.988281 297.15625 79.777344 294.941406 C 77.5625 292.730469 74.621094 291.507812 71.492188 291.507812 Z M 71.492188 291.507812 " fill-opacity="1" fill-rule="nonzero"/><path fill="#ffffff" d="M 103.941406 51.859375 C 101.941406 51.859375 99.992188 50.835938 98.898438 48.988281 C 97.246094 46.203125 98.164062 42.609375 100.949219 40.960938 C 114.328125 33.027344 128.699219 26.988281 143.667969 23.007812 C 146.792969 22.179688 150.003906 24.039062 150.835938 27.167969 C 151.667969 30.292969 149.804688 33.503906 146.679688 34.335938 C 132.753906 38.035156 119.378906 43.65625 106.925781 51.039062 C 105.988281 51.597656 104.960938 51.859375 103.941406 51.859375 Z M 103.941406 51.859375 " fill-opacity="1" fill-rule="nonzero"/><path fill="#ffffff" d="M 270.160156 52.210938 C 269.160156 52.210938 268.152344 51.957031 267.226562 51.417969 C 254.761719 44.191406 241.332031 38.710938 227.300781 35.125 C 224.167969 34.320312 222.277344 31.128906 223.078125 27.996094 C 223.878906 24.859375 227.070312 22.96875 230.203125 23.769531 C 245.273438 27.621094 259.707031 33.511719 273.105469 41.28125 C 275.902344 42.90625 276.855469 46.492188 275.234375 49.289062 C 274.148438 51.164062 272.179688 52.210938 270.160156 52.210938 Z M 270.160156 52.210938 " fill-opacity="1" fill-rule="nonzero"/><path fill="#ffffff" d="M 346.042969 153.097656 C 343.453125 153.097656 341.082031 151.363281 340.382812 148.742188 C 336.683594 134.820312 331.0625 121.445312 323.675781 108.988281 C 322.027344 106.207031 322.945312 102.609375 325.730469 100.960938 C 328.515625 99.3125 332.109375 100.230469 333.757812 103.011719 C 341.691406 116.394531 347.730469 130.769531 351.710938 145.730469 C 352.542969 148.859375 350.679688 152.066406 347.550781 152.898438 C 347.046875 153.03125 346.542969 153.097656 346.042969 153.097656 Z M 346.042969 153.097656 " fill-opacity="1" fill-rule="nonzero"/><path fill="#ffffff" d="M 328.363281 278.089844 C 327.363281 278.089844 326.351562 277.832031 325.425781 277.296875 C 322.628906 275.671875 321.675781 272.089844 323.300781 269.289062 C 330.527344 256.824219 336.007812 243.394531 339.59375 229.367188 C 340.394531 226.230469 343.589844 224.335938 346.722656 225.140625 C 349.855469 225.941406 351.75 229.132812 350.949219 232.265625 C 347.097656 247.335938 341.203125 261.769531 333.4375 275.167969 C 332.347656 277.042969 330.382812 278.089844 328.363281 278.089844 Z M 328.363281 278.089844 " fill-opacity="1" fill-rule="nonzero"/><path fill="#ffffff" d="M 227.480469 353.96875 C 224.886719 353.96875 222.519531 352.238281 221.820312 349.617188 C 220.988281 346.488281 222.847656 343.28125 225.976562 342.449219 C 239.902344 338.746094 253.277344 333.125 265.730469 325.738281 C 268.511719 324.089844 272.109375 325.007812 273.757812 327.792969 C 275.40625 330.578125 274.488281 334.171875 271.707031 335.820312 C 258.328125 343.753906 243.953125 349.792969 228.988281 353.773438 C 228.484375 353.90625 227.976562 353.96875 227.480469 353.96875 Z M 227.480469 353.96875 " fill-opacity="1" fill-rule="nonzero"/><path fill="#ffffff" d="M 143.90625 353.195312 C 143.425781 353.195312 142.9375 353.136719 142.449219 353.011719 C 127.378906 349.15625 112.945312 343.265625 99.550781 335.5 C 96.75 333.875 95.796875 330.289062 97.421875 327.488281 C 99.046875 324.691406 102.628906 323.734375 105.429688 325.363281 C 117.890625 332.589844 131.324219 338.070312 145.351562 341.65625 C 148.488281 342.460938 150.378906 345.648438 149.578125 348.785156 C 148.902344 351.433594 146.519531 353.195312 143.90625 353.195312 Z M 143.90625 353.195312 " fill-opacity="1" fill-rule="nonzero"/><path fill="#ffffff" d="M 43.945312 276.640625 C 41.941406 276.640625 39.992188 275.617188 38.898438 273.769531 C 30.964844 260.386719 24.925781 246.015625 20.945312 231.050781 C 20.117188 227.921875 21.976562 224.714844 25.105469 223.882812 C 28.230469 223.054688 31.441406 224.914062 32.273438 228.039062 C 35.972656 241.964844 41.59375 255.339844 48.976562 267.792969 C 50.628906 270.578125 49.710938 274.171875 46.925781 275.820312 C 45.988281 276.375 44.960938 276.640625 43.945312 276.640625 Z M 43.945312 276.640625 " fill-opacity="1" fill-rule="nonzero"/><path fill="#ffffff" d="M 27.390625 151.824219 C 26.910156 151.824219 26.421875 151.765625 25.933594 151.640625 C 22.800781 150.839844 20.90625 147.648438 21.707031 144.511719 C 25.5625 129.441406 31.453125 115.007812 39.21875 101.613281 C 40.84375 98.816406 44.429688 97.859375 47.230469 99.484375 C 50.027344 101.109375 50.980469 104.695312 49.359375 107.492188 C 42.128906 119.957031 36.648438 133.386719 33.0625 147.414062 C 32.382812 150.0625 30 151.824219 27.390625 151.824219 Z M 27.390625 151.824219 " fill-opacity="1" fill-rule="nonzero"/></svg>