<svg xmlns="http://www.w3.org/2000/svg" xmlns:xlink="http://www.w3.org/1999/xlink" width="250" zoomAndPan="magnify" viewBox="0 0 187.92 196.08" height="250" preserveAspectRatio="xMidYMid meet" version="1.0"><defs><clipPath id="f487f821d6"><path d="M 38 121 L 61 121 L 61 186.625 L 38 186.625 Z M 38 121 " clip-rule="nonzero"/></clipPath><clipPath id="246f89a318"><path d="M 17.265625 124 L 43 124 L 43 184 L 17.265625 184 Z M 17.265625 124 " clip-rule="nonzero"/></clipPath><clipPath id="cdb6e88464"><path d="M 17.265625 152 L 22 152 L 22 166 L 17.265625 166 Z M 17.265625 152 " clip-rule="nonzero"/></clipPath><clipPath id="45abecf1d0"><path d="M 111 0 L 164.324219 0 L 164.324219 54 L 111 54 Z M 111 0 " clip-rule="nonzero"/></clipPath></defs><path fill="#000000" d="M 99.109375 185.148438 C 81.558594 185.148438 58.4375 177.53125 57.453125 177.203125 C 56.292969 176.816406 55.667969 175.5625 56.050781 174.402344 C 56.433594 173.242188 57.6875 172.613281 58.847656 172.996094 C 59.082031 173.074219 82.28125 180.71875 99.113281 180.71875 C 99.234375 180.71875 99.351562 180.71875 99.46875 180.71875 C 101.945312 180.699219 104.40625 180.234375 106.777344 179.335938 C 111.539062 177.527344 121.09375 173.308594 131.597656 165.386719 C 139.910156 159.117188 147.011719 155.296875 151.503906 153.195312 C 152.777344 152.601562 153.730469 151.539062 154.1875 150.203125 C 154.644531 148.859375 154.539062 147.425781 153.890625 146.164062 C 153.140625 144.703125 151.859375 143.640625 150.289062 143.171875 C 148.714844 142.703125 147.0625 142.886719 145.636719 143.695312 L 112.972656 162.179688 C 112.640625 162.367188 112.265625 162.464844 111.882812 162.464844 L 82.105469 162.464844 C 80.882812 162.464844 79.894531 161.476562 79.894531 160.25 C 79.894531 159.027344 80.882812 158.035156 82.105469 158.035156 L 111.300781 158.035156 L 143.457031 139.835938 C 145.945312 138.429688 148.820312 138.105469 151.554688 138.925781 C 154.289062 139.742188 156.515625 141.59375 157.824219 144.132812 C 159.03125 146.476562 159.226562 149.140625 158.375 151.632812 C 157.527344 154.117188 155.753906 156.097656 153.375 157.207031 C 149.074219 159.21875 142.265625 162.882812 134.261719 168.921875 C 123.320312 177.175781 113.332031 181.582031 108.347656 183.476562 C 105.480469 184.5625 102.503906 185.128906 99.496094 185.144531 C 99.367188 185.144531 99.238281 185.144531 99.109375 185.144531 Z M 99.109375 185.148438 " fill-opacity="1" fill-rule="nonzero"/><path fill="#000000" d="M 119.046875 158.410156 C 117.824219 158.410156 116.835938 157.417969 116.835938 156.195312 L 116.835938 154.601562 C 116.835938 150.882812 113.808594 147.855469 110.09375 147.855469 L 89.941406 147.855469 C 88.738281 147.855469 87.753906 146.890625 87.730469 145.683594 C 87.675781 142.992188 86.898438 140.945312 85.421875 139.597656 C 82.882812 137.28125 78.957031 137.535156 78.917969 137.539062 C 78.859375 137.542969 78.808594 137.546875 78.75 137.546875 L 58.152344 137.546875 C 56.929688 137.546875 55.9375 136.554688 55.9375 135.332031 C 55.9375 134.105469 56.929688 133.117188 58.152344 133.117188 L 78.675781 133.117188 C 79.511719 133.066406 84.640625 132.921875 88.367188 136.292969 C 90.335938 138.074219 91.546875 140.464844 91.980469 143.425781 L 110.09375 143.425781 C 116.25 143.425781 121.261719 148.4375 121.261719 154.601562 L 121.261719 156.195312 C 121.261719 157.417969 120.269531 158.410156 119.046875 158.410156 Z M 119.046875 158.410156 " fill-opacity="1" fill-rule="nonzero"/><g clip-path="url(#f487f821d6)"><path fill="#000000" d="M 51.742188 186.621094 L 46.875 186.621094 C 42.121094 186.621094 38.253906 182.75 38.253906 177.996094 L 38.253906 130.535156 C 38.253906 125.777344 42.121094 121.90625 46.875 121.90625 L 51.742188 121.90625 C 56.496094 121.90625 60.363281 125.777344 60.363281 130.535156 L 60.363281 177.996094 C 60.363281 182.75 56.496094 186.621094 51.742188 186.621094 Z M 46.875 126.339844 C 44.5625 126.339844 42.679688 128.222656 42.679688 130.539062 L 42.679688 177.996094 C 42.679688 180.3125 44.5625 182.195312 46.875 182.195312 L 51.742188 182.195312 C 54.054688 182.195312 55.9375 180.3125 55.9375 177.996094 L 55.9375 130.539062 C 55.9375 128.222656 54.054688 126.339844 51.742188 126.339844 Z M 46.875 126.339844 " fill-opacity="1" fill-rule="nonzero"/></g><g clip-path="url(#246f89a318)"><path fill="#000000" d="M 40.46875 183.980469 L 26.207031 183.980469 C 21.320312 183.980469 17.339844 180 17.339844 175.105469 C 17.339844 173.882812 18.332031 172.890625 19.554688 172.890625 C 20.777344 172.890625 21.765625 173.882812 21.765625 175.105469 C 21.765625 177.558594 23.757812 179.550781 26.207031 179.550781 L 38.253906 179.550781 L 38.253906 128.984375 L 26.207031 128.984375 C 23.757812 128.984375 21.765625 130.980469 21.765625 133.429688 L 21.765625 147.488281 C 21.765625 148.710938 20.777344 149.703125 19.554688 149.703125 C 18.332031 149.703125 17.339844 148.710938 17.339844 147.488281 L 17.339844 133.429688 C 17.339844 128.535156 21.320312 124.554688 26.207031 124.554688 L 40.46875 124.554688 C 41.691406 124.554688 42.679688 125.546875 42.679688 126.769531 L 42.679688 181.765625 C 42.679688 182.988281 41.691406 183.980469 40.46875 183.980469 Z M 40.46875 183.980469 " fill-opacity="1" fill-rule="nonzero"/></g><g clip-path="url(#cdb6e88464)"><path fill="#000000" d="M 19.554688 165.78125 C 18.332031 165.78125 17.339844 164.789062 17.339844 163.566406 L 17.339844 154.265625 C 17.339844 153.042969 18.332031 152.050781 19.554688 152.050781 C 20.777344 152.050781 21.765625 153.042969 21.765625 154.265625 L 21.765625 163.566406 C 21.765625 164.789062 20.777344 165.78125 19.554688 165.78125 Z M 19.554688 165.78125 " fill-opacity="1" fill-rule="nonzero"/></g><path fill="#000000" d="M 34.203125 136.496094 C 34.203125 136.859375 34.132812 137.210938 33.992188 137.542969 C 33.855469 137.878906 33.65625 138.175781 33.402344 138.429688 C 33.144531 138.6875 32.851562 138.886719 32.515625 139.023438 C 32.179688 139.164062 31.832031 139.230469 31.472656 139.230469 C 31.109375 139.230469 30.761719 139.164062 30.425781 139.023438 C 30.089844 138.886719 29.796875 138.6875 29.539062 138.429688 C 29.285156 138.175781 29.085938 137.878906 28.949219 137.542969 C 28.808594 137.210938 28.738281 136.859375 28.738281 136.496094 C 28.738281 136.136719 28.808594 135.785156 28.949219 135.453125 C 29.085938 135.117188 29.285156 134.820312 29.539062 134.566406 C 29.796875 134.308594 30.089844 134.109375 30.425781 133.972656 C 30.761719 133.832031 31.109375 133.765625 31.472656 133.765625 C 31.832031 133.765625 32.179688 133.832031 32.515625 133.972656 C 32.851562 134.109375 33.144531 134.308594 33.402344 134.566406 C 33.65625 134.820312 33.855469 135.117188 33.992188 135.453125 C 34.132812 135.785156 34.203125 136.136719 34.203125 136.496094 Z M 34.203125 136.496094 " fill-opacity="1" fill-rule="nonzero"/><path fill="#000000" d="M 122.1875 106.714844 L 94.988281 106.714844 C 90.835938 106.714844 87.457031 103.335938 87.457031 99.183594 L 87.457031 97.46875 C 87.457031 94.742188 86.625 92.128906 85.046875 89.90625 L 75.269531 76.121094 C 68.074219 67.988281 64.113281 57.527344 64.113281 46.652344 C 64.113281 34.773438 68.734375 23.605469 77.128906 15.203125 C 85.523438 6.804688 96.679688 2.179688 108.546875 2.179688 C 116.644531 2.179688 123.765625 4.042969 130.324219 7.875 C 131.21875 8.398438 131.519531 9.550781 130.996094 10.445312 C 130.472656 11.339844 129.324219 11.640625 128.429688 11.117188 C 122.382812 7.578125 116.0625 5.929688 108.546875 5.929688 C 86.113281 5.929688 67.863281 24.199219 67.863281 46.652344 C 67.863281 56.640625 71.511719 66.25 78.140625 73.707031 C 78.1875 73.757812 78.226562 73.8125 78.265625 73.867188 L 88.105469 87.730469 C 90.132812 90.59375 91.207031 93.960938 91.207031 97.46875 L 91.207031 99.183594 C 91.207031 101.269531 92.902344 102.960938 94.988281 102.960938 L 122.1875 102.960938 C 124.273438 102.960938 125.96875 101.269531 125.96875 99.183594 L 125.96875 97.46875 C 125.96875 93.960938 127.042969 90.59375 129.074219 87.730469 L 138.59375 74.3125 C 138.671875 74.09375 138.792969 73.890625 138.953125 73.707031 C 145.578125 66.253906 149.230469 56.644531 149.230469 46.652344 C 149.230469 45.617188 150.066406 44.777344 151.105469 44.777344 C 152.140625 44.777344 152.980469 45.617188 152.980469 46.652344 C 152.980469 57.382812 149.125 67.707031 142.117188 75.792969 C 142.074219 75.878906 142.023438 75.960938 141.96875 76.042969 L 132.128906 89.90625 C 130.554688 92.128906 129.71875 94.746094 129.71875 97.46875 L 129.71875 99.1875 C 129.71875 103.339844 126.339844 106.71875 122.1875 106.71875 Z M 122.1875 106.714844 " fill-opacity="1" fill-rule="nonzero"/><path fill="#000000" d="M 122.113281 115.703125 L 95.925781 115.703125 C 93.453125 115.703125 91.441406 113.691406 91.441406 111.210938 L 91.441406 107.453125 C 91.441406 104.976562 93.453125 102.960938 95.925781 102.960938 L 122.113281 102.960938 C 124.585938 102.960938 126.601562 104.976562 126.601562 107.453125 L 126.601562 111.210938 C 126.601562 113.6875 124.589844 115.703125 122.113281 115.703125 Z M 95.925781 106.714844 C 95.519531 106.714844 95.1875 107.042969 95.1875 107.453125 L 95.1875 111.210938 C 95.1875 111.617188 95.519531 111.949219 95.925781 111.949219 L 122.113281 111.949219 C 122.519531 111.949219 122.851562 111.621094 122.851562 111.210938 L 122.851562 107.453125 C 122.851562 107.046875 122.523438 106.714844 122.113281 106.714844 Z M 95.925781 106.714844 " fill-opacity="1" fill-rule="nonzero"/><path fill="#000000" d="M 122.113281 124.691406 L 95.925781 124.691406 C 93.453125 124.691406 91.441406 122.679688 91.441406 120.203125 L 91.441406 116.441406 C 91.441406 113.964844 93.453125 111.949219 95.925781 111.949219 L 122.113281 111.949219 C 124.585938 111.949219 126.601562 113.964844 126.601562 116.441406 L 126.601562 120.203125 C 126.601562 122.675781 124.589844 124.691406 122.113281 124.691406 Z M 95.925781 115.703125 C 95.519531 115.703125 95.1875 116.035156 95.1875 116.441406 L 95.1875 120.203125 C 95.1875 120.609375 95.519531 120.941406 95.925781 120.941406 L 122.113281 120.941406 C 122.519531 120.941406 122.851562 120.609375 122.851562 120.203125 L 122.851562 116.441406 C 122.851562 116.035156 122.523438 115.703125 122.113281 115.703125 Z M 95.925781 115.703125 " fill-opacity="1" fill-rule="nonzero"/><path fill="#000000" d="M 109.804688 137.488281 L 108.683594 137.488281 C 101.898438 137.488281 96.375 131.960938 96.375 125.167969 L 96.375 122.816406 C 96.375 121.78125 97.214844 120.9375 98.253906 120.9375 L 120.6875 120.9375 C 121.722656 120.9375 122.5625 121.777344 122.5625 122.816406 L 122.5625 124.71875 C 122.5625 131.757812 116.839844 137.488281 109.808594 137.488281 Z M 100.125 124.691406 L 100.125 125.167969 C 100.125 129.894531 103.964844 133.738281 108.683594 133.738281 L 109.804688 133.738281 C 114.773438 133.738281 118.8125 129.691406 118.8125 124.722656 L 118.8125 124.695312 L 100.125 124.695312 Z M 100.125 124.691406 " fill-opacity="1" fill-rule="nonzero"/><path fill="#000000" d="M 117.179688 106.492188 C 116.328125 106.492188 115.558594 105.910156 115.355469 105.046875 C 113.179688 95.804688 112.195312 86.375 112.40625 76.917969 C 112.058594 76.984375 111.710938 77.042969 111.359375 77.09375 C 110.226562 77.25 109.101562 77.308594 107.992188 77.273438 C 107.34375 87.015625 104.808594 96.632812 100.542969 105.414062 C 100.089844 106.347656 98.96875 106.734375 98.035156 106.285156 C 97.105469 105.832031 96.71875 104.707031 97.167969 103.773438 C 101.261719 95.351562 103.679688 86.121094 104.265625 76.773438 C 102.265625 76.289062 100.382812 75.472656 98.707031 74.335938 C 95.839844 72.390625 94 69.816406 93.53125 67.078125 C 92.90625 63.429688 95.042969 59.742188 98.296875 58.863281 C 101.644531 57.960938 104.921875 60.125 106.425781 62.730469 C 107.828125 65.160156 108.078125 67.964844 108.136719 70.632812 C 108.160156 71.601562 108.160156 72.570312 108.144531 73.535156 C 109.625 73.589844 111.117188 73.425781 112.558594 73.058594 C 112.617188 71.988281 112.695312 70.917969 112.785156 69.847656 C 112.988281 67.496094 113.34375 64.8125 115.03125 62.707031 C 116.152344 61.3125 117.882812 60.410156 119.660156 60.296875 C 121.136719 60.199219 122.492188 60.667969 123.484375 61.617188 C 126.082031 64.101562 125.089844 68.203125 122.765625 70.972656 C 121.019531 73.058594 118.761719 74.691406 116.1875 75.773438 C 115.863281 85.324219 116.804688 94.855469 119 104.1875 C 119.238281 105.195312 118.613281 106.207031 117.605469 106.445312 C 117.464844 106.480469 117.316406 106.496094 117.175781 106.496094 Z M 99.871094 62.410156 C 99.671875 62.410156 99.472656 62.433594 99.277344 62.488281 C 97.785156 62.890625 96.96875 64.90625 97.230469 66.441406 C 97.628906 68.761719 99.644531 70.433594 100.8125 71.226562 C 101.921875 71.976562 103.136719 72.539062 104.40625 72.921875 C 104.414062 72.1875 104.40625 71.449219 104.390625 70.714844 C 104.335938 68.207031 104.109375 66.207031 103.183594 64.605469 C 102.507812 63.4375 101.164062 62.410156 99.871094 62.410156 Z M 120.046875 64.035156 C 120.003906 64.035156 119.957031 64.035156 119.910156 64.039062 C 119.195312 64.085938 118.410156 64.496094 117.960938 65.058594 C 116.933594 66.339844 116.6875 68.285156 116.527344 70.167969 C 116.488281 70.605469 116.453125 71.039062 116.421875 71.476562 C 117.730469 70.707031 118.917969 69.730469 119.902344 68.558594 C 121.066406 67.171875 121.746094 65.140625 120.902344 64.332031 C 120.695312 64.136719 120.410156 64.039062 120.050781 64.039062 Z M 120.046875 64.035156 " fill-opacity="1" fill-rule="nonzero"/><g clip-path="url(#45abecf1d0)"><path fill="#000000" d="M 140.792969 53.199219 L 134.566406 53.199219 C 133.765625 53.199219 133.050781 52.683594 132.792969 51.925781 L 130.910156 46.359375 C 130.238281 46.128906 129.578125 45.863281 128.9375 45.566406 L 123.734375 48.289062 C 123.023438 48.660156 122.152344 48.535156 121.570312 47.980469 L 117.070312 43.675781 C 116.488281 43.121094 116.328125 42.257812 116.667969 41.527344 L 119.148438 36.203125 C 118.675781 35.289062 118.269531 34.34375 117.9375 33.375 L 112.378906 31.492188 C 111.617188 31.234375 111.105469 30.519531 111.105469 29.714844 L 111.105469 23.484375 C 111.105469 22.679688 111.617188 21.964844 112.378906 21.707031 L 117.9375 19.820312 C 118.167969 19.152344 118.433594 18.492188 118.730469 17.847656 L 116.011719 12.640625 C 115.640625 11.925781 115.761719 11.054688 116.316406 10.472656 L 120.617188 5.96875 C 121.171875 5.386719 122.035156 5.226562 122.765625 5.566406 L 128.085938 8.046875 C 128.996094 7.574219 129.941406 7.171875 130.910156 6.839844 L 132.792969 1.273438 C 133.050781 0.511719 133.765625 0 134.566406 0 L 140.792969 0 C 141.597656 0 142.308594 0.511719 142.566406 1.273438 L 144.449219 6.839844 C 145.121094 7.070312 145.78125 7.332031 146.425781 7.632812 L 151.625 4.910156 C 152.339844 4.539062 153.207031 4.660156 153.789062 5.214844 L 158.289062 9.519531 C 158.871094 10.078125 159.03125 10.941406 158.695312 11.671875 L 156.214844 16.996094 C 156.683594 17.90625 157.089844 18.851562 157.421875 19.820312 L 162.980469 21.707031 C 163.742188 21.964844 164.253906 22.679688 164.253906 23.484375 L 164.253906 29.714844 C 164.253906 30.519531 163.742188 31.234375 162.980469 31.492188 L 157.421875 33.375 C 157.191406 34.046875 156.925781 34.707031 156.628906 35.351562 L 159.347656 40.558594 C 159.722656 41.273438 159.597656 42.144531 159.042969 42.722656 L 154.742188 47.226562 C 154.1875 47.808594 153.324219 47.972656 152.59375 47.632812 L 147.273438 45.148438 C 146.363281 45.621094 145.417969 46.027344 144.449219 46.359375 L 142.566406 51.925781 C 142.308594 52.6875 141.597656 53.199219 140.792969 53.199219 Z M 135.914062 49.445312 L 139.449219 49.445312 L 141.203125 44.257812 C 141.402344 43.675781 141.867188 43.226562 142.457031 43.054688 C 143.785156 42.671875 145.066406 42.121094 146.265625 41.425781 C 146.792969 41.117188 147.441406 41.089844 147.996094 41.347656 L 152.960938 43.664062 L 155.402344 41.105469 L 152.867188 36.246094 C 152.582031 35.703125 152.582031 35.054688 152.867188 34.511719 C 153.386719 33.511719 153.808594 32.457031 154.121094 31.382812 C 154.292969 30.792969 154.738281 30.324219 155.320312 30.125 L 160.503906 28.367188 L 160.503906 24.828125 L 155.320312 23.074219 C 154.738281 22.875 154.289062 22.40625 154.121094 21.816406 C 153.734375 20.488281 153.1875 19.207031 152.492188 18.007812 C 152.183594 17.476562 152.152344 16.828125 152.414062 16.273438 L 154.726562 11.300781 L 152.171875 8.859375 L 147.316406 11.398438 C 146.773438 11.679688 146.125 11.679688 145.582031 11.398438 C 144.582031 10.875 143.53125 10.453125 142.457031 10.140625 C 141.867188 9.96875 141.398438 9.523438 141.203125 8.941406 L 139.445312 3.753906 L 135.910156 3.753906 L 134.15625 8.941406 C 133.957031 9.523438 133.492188 9.972656 132.902344 10.140625 C 131.574219 10.527344 130.292969 11.074219 129.09375 11.773438 C 128.5625 12.078125 127.914062 12.109375 127.359375 11.847656 L 122.398438 9.535156 L 119.957031 12.09375 L 122.492188 16.953125 C 122.777344 17.496094 122.777344 18.144531 122.492188 18.6875 C 121.972656 19.6875 121.550781 20.738281 121.238281 21.816406 C 121.066406 22.40625 120.621094 22.875 120.039062 23.074219 L 114.855469 24.828125 L 114.855469 28.367188 L 120.039062 30.125 C 120.621094 30.324219 121.070312 30.789062 121.238281 31.382812 C 121.625 32.710938 122.171875 33.992188 122.867188 35.191406 C 123.175781 35.722656 123.203125 36.371094 122.945312 36.925781 L 120.632812 41.894531 L 123.1875 44.335938 L 128.042969 41.800781 C 128.585938 41.515625 129.234375 41.515625 129.777344 41.800781 C 130.773438 42.320312 131.824219 42.742188 132.902344 43.054688 C 133.492188 43.226562 133.960938 43.671875 134.15625 44.253906 Z M 135.914062 49.445312 " fill-opacity="1" fill-rule="nonzero"/></g><path fill="#000000" d="M 137.679688 38.945312 C 130.878906 38.945312 125.34375 33.40625 125.34375 26.601562 C 125.34375 19.792969 130.878906 14.253906 137.679688 14.253906 C 144.480469 14.253906 150.011719 19.792969 150.011719 26.601562 C 150.011719 33.40625 144.480469 38.945312 137.679688 38.945312 Z M 137.679688 18.007812 C 132.945312 18.007812 129.09375 21.863281 129.09375 26.601562 C 129.09375 31.339844 132.945312 35.191406 137.679688 35.191406 C 142.414062 35.191406 146.265625 31.339844 146.265625 26.601562 C 146.265625 21.863281 142.414062 18.007812 137.679688 18.007812 Z M 137.679688 18.007812 " fill-opacity="1" fill-rule="nonzero"/></svg>