<svg xmlns="http://www.w3.org/2000/svg" xmlns:xlink="http://www.w3.org/1999/xlink" width="250" zoomAndPan="magnify" viewBox="0 0 187.92 196.08" height="250" preserveAspectRatio="xMidYMid meet" version="1.0"><defs><clipPath id="c169d6235b"><path d="M 1.125 4.546875 L 180 4.546875 L 180 182.210938 L 1.125 182.210938 Z M 1.125 4.546875 " clip-rule="nonzero"/></clipPath></defs><path fill="#000000" d="M 22.863281 167.84375 L 40.101562 167.84375 C 43.847656 167.84375 46.472656 164.839844 46.472656 161.464844 L 46.472656 41.425781 C 46.472656 37.671875 43.472656 35.046875 40.101562 35.046875 L 22.863281 35.046875 C 19.113281 35.046875 16.492188 38.046875 16.492188 41.425781 L 16.492188 161.089844 C 16.492188 164.839844 19.113281 167.84375 22.863281 167.84375 Z M 23.988281 42.175781 L 38.976562 42.175781 L 38.976562 159.964844 L 23.988281 159.964844 Z M 23.988281 42.175781 " fill-opacity="1" fill-rule="nonzero"/><g clip-path="url(#c169d6235b)"><path fill="#000000" d="M 175.765625 174.96875 L 8.621094 174.96875 L 8.621094 8.414062 C 8.621094 6.164062 7.121094 4.660156 4.875 4.660156 C 2.625 4.660156 1.125 6.164062 1.125 8.414062 L 1.125 178.34375 C 1.125 180.597656 2.625 182.097656 4.875 182.097656 L 175.765625 182.097656 C 178.011719 182.097656 179.511719 180.597656 179.511719 178.34375 C 179.511719 176.46875 177.636719 174.96875 175.765625 174.96875 Z M 175.765625 174.96875 " fill-opacity="1" fill-rule="nonzero"/></g><path fill="#000000" d="M 179.886719 146.085938 C 179.136719 145.335938 177.261719 143.832031 175.015625 141.957031 L 175.015625 49.675781 C 175.015625 45.925781 172.015625 42.925781 168.644531 42.925781 L 151.40625 42.925781 C 147.65625 42.925781 145.035156 45.925781 145.035156 49.675781 L 145.035156 66.933594 C 133.792969 46.300781 110.554688 36.921875 89.570312 42.550781 L 89.570312 12.164062 C 89.570312 8.414062 86.570312 5.414062 83.199219 5.414062 L 65.960938 5.414062 C 62.210938 5.414062 59.589844 8.414062 59.589844 12.164062 L 59.589844 64.683594 C 49.84375 80.4375 49.84375 100.320312 59.589844 116.449219 L 59.589844 161.464844 C 59.589844 165.214844 62.585938 168.21875 65.960938 168.21875 L 83.199219 168.21875 C 86.945312 168.21875 89.570312 165.214844 89.570312 161.464844 L 89.570312 138.582031 C 93.691406 139.707031 97.8125 140.082031 101.5625 140.082031 C 101.9375 140.082031 101.9375 140.082031 102.3125 140.082031 L 102.3125 161.089844 C 102.3125 164.839844 105.308594 167.84375 108.683594 167.84375 L 125.921875 167.84375 C 129.667969 167.84375 132.292969 164.839844 132.292969 161.089844 L 132.292969 140.457031 C 133.042969 140.082031 133.417969 139.707031 133.792969 139.332031 C 137.164062 144.585938 141.285156 149.835938 145.035156 154.710938 L 145.035156 161.089844 C 145.035156 164.839844 148.03125 167.84375 151.40625 167.84375 L 155.527344 167.84375 C 155.902344 168.21875 156.277344 168.96875 156.652344 168.96875 C 163.023438 175.34375 173.515625 175.34375 179.886719 168.96875 C 186.257812 162.589844 186.257812 152.460938 179.886719 146.085938 Z M 167.519531 50.800781 L 167.519531 135.582031 C 163.023438 131.828125 157.402344 128.078125 152.527344 124.328125 L 152.527344 50.800781 Z M 129.292969 133.332031 L 128.167969 132.203125 C 134.164062 128.453125 139.414062 123.203125 143.160156 117.199219 L 144.285156 118.324219 Z M 81.699219 12.914062 L 81.699219 44.800781 C 76.078125 47.050781 70.832031 50.800781 66.710938 54.929688 L 66.710938 12.914062 Z M 66.710938 160.339844 L 66.710938 125.828125 C 71.207031 130.328125 76.078125 133.707031 81.699219 135.957031 L 81.699219 160.339844 Z M 86.945312 129.953125 C 81.324219 127.703125 76.078125 124.703125 71.957031 120.199219 C 69.707031 117.949219 67.832031 115.699219 66.335938 113.074219 C 57.339844 99.195312 57.339844 81.1875 66.335938 67.683594 C 71.207031 60.179688 78.703125 54.179688 86.945312 50.800781 C 91.816406 48.925781 96.691406 48.175781 101.5625 48.175781 C 146.15625 48.175781 159.273438 108.195312 120.300781 127.703125 C 110.179688 133.332031 97.8125 134.082031 86.945312 129.953125 Z M 109.429688 160.339844 L 109.429688 139.332031 C 113.554688 138.582031 117.300781 137.457031 121.050781 135.957031 C 122.171875 137.082031 123.671875 138.957031 124.796875 139.707031 L 124.796875 160.339844 Z M 174.640625 163.714844 C 171.265625 167.089844 165.644531 167.089844 162.273438 163.714844 C 159.648438 161.089844 147.65625 146.460938 139.414062 133.707031 L 145.035156 128.078125 C 157.402344 136.332031 172.390625 148.335938 175.015625 150.960938 C 178.011719 154.710938 178.011719 160.339844 174.640625 163.714844 Z M 174.640625 163.714844 " fill-opacity="1" fill-rule="nonzero"/><path fill="#000000" d="M 135.289062 101.820312 C 143.160156 78.1875 125.921875 54.554688 101.1875 54.554688 C 81.324219 54.554688 65.210938 70.683594 65.210938 90.566406 C 65.585938 131.078125 122.546875 140.082031 135.289062 101.820312 Z M 105.308594 118.324219 C 105.308594 118.699219 105.308594 118.699219 105.308594 118.324219 C 88.070312 120.949219 73.078125 107.445312 73.078125 90.191406 C 73.078125 65.058594 103.808594 52.304688 121.425781 70.308594 C 137.914062 87.191406 128.542969 115.324219 105.308594 118.324219 Z M 105.308594 118.324219 " fill-opacity="1" fill-rule="nonzero"/></svg>