<svg xmlns="http://www.w3.org/2000/svg" xmlns:xlink="http://www.w3.org/1999/xlink" width="250" zoomAndPan="magnify" viewBox="0 0 187.92 196.08" height="250" preserveAspectRatio="xMidYMid meet" version="1.0"><defs><clipPath id="23dc2bcc52"><path d="M 9 0 L 178 0 L 178 186.625 L 9 186.625 Z M 9 0 " clip-rule="nonzero"/></clipPath></defs><g clip-path="url(#23dc2bcc52)"><path fill="#000000" d="M 162.902344 93.3125 C 164.152344 91.726562 165.339844 90.136719 166.457031 88.539062 C 177.867188 72.214844 180.753906 57.355469 174.59375 46.691406 C 168.433594 36.027344 154.109375 31.097656 134.257812 32.8125 C 132.300781 32.984375 130.3125 33.214844 128.300781 33.503906 C 127.558594 31.648438 126.773438 29.839844 125.957031 28.089844 C 117.496094 10.019531 106.070312 0.0703125 93.78125 0.0703125 C 81.492188 0.0703125 70.066406 10.019531 61.605469 28.089844 C 60.785156 29.839844 60.003906 31.648438 59.261719 33.503906 C 57.25 33.214844 55.261719 32.980469 53.304688 32.8125 C 33.453125 31.097656 19.128906 36.027344 12.96875 46.691406 C 6.804688 57.355469 9.699219 72.214844 21.105469 88.539062 C 22.222656 90.132812 23.410156 91.726562 24.660156 93.3125 C 23.410156 94.898438 22.222656 96.488281 21.105469 98.085938 C 9.695312 114.410156 6.804688 129.269531 12.96875 139.933594 C 18.324219 149.210938 29.863281 154.148438 45.847656 154.144531 C 48.238281 154.144531 50.726562 154.03125 53.304688 153.8125 C 55.261719 153.640625 57.25 153.410156 59.261719 153.117188 C 60.003906 154.976562 60.789062 156.785156 61.605469 158.535156 C 70.066406 176.601562 81.492188 186.554688 93.78125 186.554688 C 106.070312 186.554688 117.496094 176.601562 125.957031 158.535156 C 126.777344 156.785156 127.558594 154.976562 128.300781 153.117188 C 130.3125 153.410156 132.300781 153.644531 134.257812 153.8125 C 136.839844 154.035156 139.324219 154.144531 141.714844 154.144531 C 157.695312 154.144531 169.238281 149.207031 174.59375 139.933594 C 180.753906 129.269531 177.863281 114.410156 166.457031 98.085938 C 165.339844 96.488281 164.152344 94.898438 162.902344 93.3125 Z M 134.65625 37.4375 C 137.132812 37.222656 139.515625 37.117188 141.789062 37.117188 C 155.984375 37.117188 166.085938 41.242188 170.570312 49.007812 C 175.78125 58.019531 172.964844 71.117188 162.644531 85.875 C 161.769531 87.128906 160.839844 88.382812 159.878906 89.632812 C 153.542969 82.242188 145.816406 75.039062 137.054688 68.332031 C 135.613281 57.40625 133.226562 47.136719 129.976562 37.953125 C 131.558594 37.746094 133.117188 37.566406 134.65625 37.4375 Z M 113.902344 128.132812 C 107.246094 131.976562 100.492188 135.347656 93.78125 138.21875 C 87.070312 135.347656 80.316406 131.976562 73.660156 128.132812 C 67.007812 124.292969 60.710938 120.144531 54.871094 115.773438 C 53.996094 108.523438 53.542969 100.992188 53.542969 93.3125 C 53.542969 85.632812 53.996094 78.097656 54.871094 70.851562 C 60.710938 66.484375 67.007812 62.332031 73.660156 58.492188 C 80.316406 54.648438 87.070312 51.277344 93.78125 48.40625 C 100.492188 51.277344 107.246094 54.648438 113.902344 58.492188 C 120.554688 62.328125 126.851562 66.480469 132.691406 70.851562 C 133.566406 78.097656 134.019531 85.632812 134.019531 93.3125 C 134.019531 100.992188 133.566406 108.523438 132.691406 115.773438 C 126.851562 120.144531 120.550781 124.289062 113.902344 128.132812 Z M 131.796875 122.167969 C 130.324219 131.414062 128.140625 140.105469 125.308594 147.929688 C 117.125 146.464844 108.511719 144.003906 99.761719 140.644531 C 105.269531 138.128906 110.78125 135.289062 116.21875 132.152344 C 121.660156 129.015625 126.867188 125.671875 131.796875 122.167969 Z M 87.792969 140.644531 C 79.046875 144.003906 70.4375 146.46875 62.25 147.929688 C 59.417969 140.101562 57.234375 131.414062 55.761719 122.167969 C 60.691406 125.667969 65.898438 129.015625 71.335938 132.152344 C 76.78125 135.289062 82.289062 138.128906 87.792969 140.644531 Z M 49.769531 111.804688 C 42.472656 105.90625 36.019531 99.671875 30.65625 93.3125 C 36.019531 86.953125 42.476562 80.71875 49.769531 74.820312 C 49.195312 80.847656 48.894531 87.03125 48.894531 93.3125 C 48.894531 99.589844 49.195312 105.777344 49.769531 111.804688 Z M 55.765625 64.457031 C 57.238281 55.210938 59.421875 46.515625 62.253906 38.695312 C 70.4375 40.160156 79.050781 42.621094 87.796875 45.980469 C 82.292969 48.492188 76.78125 51.332031 71.34375 54.472656 C 65.902344 57.609375 60.695312 60.953125 55.765625 64.457031 Z M 99.765625 45.980469 C 108.515625 42.621094 117.125 40.15625 125.3125 38.695312 C 128.144531 46.519531 130.328125 55.210938 131.800781 64.457031 C 126.871094 60.957031 121.664062 57.609375 116.226562 54.472656 C 110.78125 51.332031 105.273438 48.492188 99.765625 45.980469 Z M 137.792969 74.820312 C 145.089844 80.71875 151.539062 86.953125 156.90625 93.3125 C 151.539062 99.671875 145.089844 105.90625 137.792969 111.804688 C 138.367188 105.777344 138.667969 99.589844 138.667969 93.3125 C 138.667969 87.03125 138.367188 80.847656 137.792969 74.820312 Z M 65.8125 30.054688 C 73.464844 13.710938 83.394531 4.710938 93.78125 4.710938 C 104.167969 4.710938 114.097656 13.710938 121.75 30.054688 C 122.390625 31.429688 123.007812 32.839844 123.605469 34.285156 C 114.046875 36.070312 103.960938 39.148438 93.78125 43.367188 C 83.601562 39.148438 73.515625 36.070312 63.957031 34.285156 C 64.554688 32.84375 65.171875 31.429688 65.8125 30.054688 Z M 24.917969 85.878906 C 14.597656 71.121094 11.78125 58.023438 16.988281 49.011719 C 21.476562 41.242188 31.574219 37.121094 45.773438 37.121094 C 48.046875 37.121094 50.429688 37.222656 52.90625 37.441406 C 54.445312 37.570312 56.003906 37.75 57.585938 37.960938 C 54.335938 47.140625 51.945312 57.414062 50.507812 68.339844 C 41.742188 75.050781 34.019531 82.25 27.683594 89.640625 C 26.71875 88.386719 25.792969 87.132812 24.917969 85.878906 Z M 52.90625 149.1875 C 50.429688 149.402344 48.046875 149.507812 45.773438 149.507812 C 31.574219 149.507812 21.476562 145.378906 16.988281 137.617188 C 11.78125 128.605469 14.597656 115.507812 24.917969 100.75 C 25.792969 99.496094 26.71875 98.242188 27.683594 96.992188 C 34.019531 104.382812 41.746094 111.585938 50.507812 118.292969 C 51.945312 129.214844 54.335938 139.488281 57.585938 148.667969 C 56.003906 148.878906 54.445312 149.054688 52.90625 149.1875 Z M 121.75 156.570312 C 114.097656 172.914062 104.167969 181.910156 93.78125 181.910156 C 83.394531 181.910156 73.464844 172.914062 65.8125 156.570312 C 65.171875 155.195312 64.554688 153.785156 63.957031 152.339844 C 73.515625 150.554688 83.597656 147.476562 93.78125 143.257812 C 103.960938 147.476562 114.046875 150.554688 123.605469 152.339844 C 123.007812 153.78125 122.390625 155.195312 121.75 156.570312 Z M 170.570312 137.613281 C 165.363281 146.621094 152.609375 150.734375 134.65625 149.1875 C 133.117188 149.054688 131.558594 148.878906 129.976562 148.664062 C 133.226562 139.488281 135.613281 129.210938 137.054688 118.289062 C 145.820312 111.578125 153.542969 104.378906 159.878906 96.988281 C 160.839844 98.238281 161.765625 99.492188 162.644531 100.746094 C 172.964844 115.503906 175.78125 128.597656 170.570312 137.613281 Z M 113.398438 75.925781 L 84.429688 75.925781 L 84.429688 71.085938 C 84.429688 65.933594 88.625 61.742188 93.777344 61.742188 C 98.929688 61.742188 103.128906 65.929688 103.128906 71.085938 C 103.128906 72.367188 104.171875 73.40625 105.453125 73.40625 C 106.734375 73.40625 107.773438 72.367188 107.773438 71.085938 C 107.773438 63.375 101.5 57.097656 93.777344 57.097656 C 86.058594 57.097656 79.785156 63.371094 79.785156 71.085938 L 79.785156 75.925781 L 74.160156 75.925781 C 71.960938 75.925781 70.171875 77.710938 70.171875 79.910156 L 70.171875 111.875 C 70.171875 114.074219 71.960938 115.859375 74.160156 115.859375 L 113.398438 115.859375 C 115.597656 115.859375 117.386719 114.074219 117.386719 111.875 L 117.386719 79.910156 C 117.386719 77.710938 115.597656 75.925781 113.398438 75.925781 Z M 112.738281 111.214844 L 74.824219 111.214844 L 74.824219 80.566406 L 112.738281 80.566406 Z M 91.457031 98.828125 L 91.457031 103.730469 C 91.457031 105.011719 92.5 106.050781 93.78125 106.050781 C 95.0625 106.050781 96.105469 105.011719 96.105469 103.730469 L 96.105469 98.828125 C 98.691406 97.878906 100.546875 95.402344 100.546875 92.488281 C 100.546875 88.761719 97.511719 85.730469 93.78125 85.730469 C 90.050781 85.730469 87.015625 88.761719 87.015625 92.488281 C 87.015625 95.402344 88.871094 97.882812 91.457031 98.828125 Z M 93.78125 90.371094 C 94.949219 90.371094 95.898438 91.320312 95.898438 92.488281 C 95.898438 93.65625 94.949219 94.605469 93.78125 94.605469 C 92.613281 94.605469 91.664062 93.65625 91.664062 92.488281 C 91.664062 91.320312 92.613281 90.371094 93.78125 90.371094 Z M 93.78125 90.371094 " fill-opacity="1" fill-rule="nonzero"/></g></svg>